<?xml version="1.0" encoding="UTF-8"?>
<svg xmlns="http://www.w3.org/2000/svg" xmlns:xlink="http://www.w3.org/1999/xlink" width="720" height="360" viewBox="0 0 720 360">
<rect x="-72" y="-36" width="864" height="432" fill="rgb(100%, 100%, 100%)" fill-opacity="1"/>
<rect x="-72" y="-36" width="864" height="432" fill="rgb(100%, 100%, 100%)" fill-opacity="1"/>
<path fill="none" stroke-width="1.066978" stroke-linecap="butt" stroke-linejoin="round" stroke="rgb(0%, 0%, 0%)" stroke-opacity="1" stroke-miterlimit="1" d="M 44.398438 273.769531 L 45.605469 273.554688 L 46.808594 273.335938 L 48.011719 273.121094 L 49.21875 272.90625 L 50.421875 272.6875 L 51.628906 272.472656 L 52.832031 272.257812 L 54.035156 272.039062 L 55.242188 271.824219 L 56.445312 271.609375 L 57.652344 271.390625 L 58.855469 271.175781 L 60.0625 270.960938 L 61.265625 270.742188 L 62.46875 270.527344 L 63.675781 270.3125 L 64.878906 270.097656 L 66.085938 269.878906 L 68.492188 269.449219 L 69.699219 269.230469 L 70.902344 269.015625 L 72.109375 268.800781 L 73.3125 268.582031 L 74.515625 268.367188 L 75.722656 268.152344 L 76.925781 267.933594 L 78.132812 267.71875 L 80.539062 267.289062 L 81.746094 267.070312 L 82.949219 266.855469 L 84.15625 266.640625 L 85.359375 266.421875 L 86.5625 266.207031 L 87.769531 265.992188 L 88.972656 265.773438 L 90.179688 265.558594 L 91.382812 265.34375 L 92.585938 265.125 L 93.792969 264.910156 L 94.996094 264.695312 L 96.203125 264.480469 L 97.40625 264.261719 L 98.609375 264.046875 L 99.816406 263.832031 L 101.019531 263.613281 L 102.226562 263.398438 L 103.429688 263.183594 L 104.632812 262.964844 L 105.839844 262.75 L 107.042969 262.535156 L 108.25 262.316406 L 110.65625 261.886719 L 111.863281 261.671875 L 113.066406 261.453125 L 114.273438 261.238281 L 115.476562 261.023438 L 116.679688 260.804688 L 117.886719 260.589844 L 119.089844 260.375 L 120.296875 260.15625 L 121.5 259.941406 L 122.707031 259.726562 L 123.910156 259.507812 L 125.113281 259.292969 L 126.320312 259.078125 L 127.523438 258.859375 L 128.730469 258.644531 L 131.136719 258.214844 L 132.34375 257.996094 L 133.546875 257.78125 L 134.753906 257.566406 L 135.957031 257.347656 L 137.160156 257.132812 L 138.367188 256.917969 L 139.570312 256.699219 L 140.777344 256.484375 L 141.980469 256.269531 L 143.183594 256.050781 L 144.390625 255.835938 L 145.59375 255.621094 L 146.800781 255.40625 L 148.003906 255.1875 L 149.207031 254.972656 L 150.414062 254.757812 L 151.617188 254.539062 L 152.824219 254.324219 L 154.027344 254.109375 L 155.230469 253.890625 L 156.4375 253.675781 L 157.640625 253.460938 L 158.847656 253.242188 L 161.253906 252.8125 L 162.460938 252.597656 L 163.664062 252.378906 "/>
<path fill="none" stroke-width="1.066978" stroke-linecap="butt" stroke-linejoin="round" stroke="rgb(0%, 0%, 0%)" stroke-opacity="1" stroke-miterlimit="1" d="M 231.941406 215.699219 L 231.914062 215.3125 L 231.820312 214.152344 L 231.792969 213.761719 L 231.730469 212.988281 L 231.703125 212.601562 L 231.671875 212.214844 L 231.640625 211.824219 L 231.609375 211.4375 L 231.582031 211.050781 L 231.519531 210.277344 L 231.488281 209.886719 L 231.460938 209.5 L 231.367188 208.339844 L 231.339844 207.949219 L 231.246094 206.789062 L 231.21875 206.402344 L 231.1875 206.011719 L 231.15625 205.625 L 231.128906 205.238281 L 231.066406 204.464844 L 231.035156 204.074219 L 231.007812 203.6875 L 230.914062 202.527344 L 230.886719 202.136719 L 230.792969 200.976562 L 230.765625 200.589844 L 230.734375 200.199219 L 230.703125 199.8125 L 230.675781 199.425781 L 230.613281 198.652344 L 230.582031 198.261719 L 230.554688 197.875 L 230.460938 196.714844 L 230.433594 196.324219 L 230.339844 195.164062 L 230.3125 194.777344 L 230.28125 194.386719 L 230.25 194 L 230.222656 193.613281 L 230.160156 192.839844 L 230.128906 192.449219 L 230.101562 192.0625 L 230.007812 190.902344 L 229.980469 190.511719 L 229.886719 189.351562 L 229.859375 188.964844 L 229.828125 188.574219 L 229.765625 187.800781 L 229.738281 187.414062 L 229.707031 187.027344 L 229.675781 186.636719 L 229.648438 186.25 L 229.554688 185.089844 L 229.527344 184.699219 L 229.433594 183.539062 L 229.40625 183.152344 L 229.375 182.761719 L 229.3125 181.988281 L 229.285156 181.601562 L 229.253906 181.214844 L 229.222656 180.824219 L 229.195312 180.4375 L 229.101562 179.277344 L 229.074219 178.886719 L 228.980469 177.726562 L 228.953125 177.335938 "/>
<path fill="none" stroke-width="1.066978" stroke-linecap="butt" stroke-linejoin="round" stroke="rgb(0%, 0%, 0%)" stroke-opacity="1" stroke-miterlimit="1" d="M 231.941406 215.699219 L 232.433594 215.539062 L 232.921875 215.375 L 233.414062 215.210938 L 233.902344 215.046875 L 234.394531 214.882812 L 234.882812 214.722656 L 235.375 214.558594 L 235.863281 214.394531 L 236.355469 214.230469 L 236.84375 214.070312 L 237.335938 213.90625 L 237.824219 213.742188 L 238.316406 213.578125 L 238.804688 213.414062 L 239.292969 213.253906 L 239.785156 213.089844 L 240.273438 212.925781 L 240.765625 212.761719 L 241.253906 212.597656 L 241.746094 212.4375 L 242.234375 212.273438 L 242.726562 212.109375 L 243.214844 211.945312 L 243.707031 211.785156 L 244.195312 211.621094 L 244.6875 211.457031 L 245.175781 211.292969 L 245.667969 211.128906 L 246.15625 210.96875 L 246.648438 210.804688 L 247.136719 210.640625 L 247.628906 210.476562 L 248.117188 210.316406 L 248.605469 210.152344 L 249.097656 209.988281 L 249.585938 209.824219 L 250.078125 209.660156 L 250.566406 209.5 L 251.058594 209.335938 L 251.546875 209.171875 L 252.039062 209.007812 L 252.527344 208.84375 L 253.019531 208.683594 L 253.507812 208.519531 L 254 208.355469 L 254.488281 208.191406 L 254.980469 208.03125 L 255.46875 207.867188 L 255.960938 207.703125 L 256.9375 207.375 L 257.429688 207.214844 L 257.917969 207.050781 L 258.410156 206.886719 L 258.898438 206.722656 L 259.390625 206.558594 L 259.878906 206.398438 L 260.371094 206.234375 L 260.859375 206.070312 L 261.351562 205.90625 L 261.839844 205.746094 L 262.332031 205.582031 L 262.820312 205.417969 L 263.3125 205.253906 L 263.800781 205.089844 L 264.292969 204.929688 L 264.78125 204.765625 L 265.273438 204.601562 L 266.25 204.273438 L 266.742188 204.113281 L 267.230469 203.949219 L 267.722656 203.785156 L 268.210938 203.621094 L 268.703125 203.460938 L 269.191406 203.296875 L 269.683594 203.132812 L 270.171875 202.96875 L 270.664062 202.804688 L 271.152344 202.644531 L 271.644531 202.480469 L 272.132812 202.316406 L 272.625 202.152344 L 273.113281 201.988281 L 273.605469 201.828125 L 274.582031 201.5 L 275.074219 201.335938 L 275.5625 201.175781 L 276.054688 201.011719 L 276.542969 200.847656 L 277.035156 200.683594 L 277.523438 200.519531 L 278.015625 200.359375 L 278.503906 200.195312 L 278.996094 200.03125 L 279.484375 199.867188 L 279.976562 199.703125 L 280.464844 199.542969 "/>
<path fill="none" stroke-width="1.066978" stroke-linecap="butt" stroke-linejoin="round" stroke="rgb(0%, 0%, 0%)" stroke-opacity="1" stroke-miterlimit="1" d="M 231.941406 215.699219 L 233.34375 215.761719 L 234.746094 215.820312 L 236.148438 215.882812 L 238.953125 216 L 240.355469 216.0625 L 243.160156 216.179688 L 244.5625 216.242188 L 245.964844 216.300781 L 247.367188 216.363281 L 250.171875 216.480469 L 251.574219 216.542969 L 252.976562 216.601562 L 254.382812 216.660156 L 255.785156 216.722656 L 257.1875 216.78125 L 258.589844 216.84375 L 261.394531 216.960938 L 262.796875 217.023438 L 264.199219 217.082031 L 265.601562 217.144531 L 268.40625 217.261719 L 269.808594 217.324219 L 272.613281 217.441406 L 274.015625 217.503906 L 275.417969 217.5625 L 276.820312 217.625 L 279.625 217.742188 L 281.027344 217.804688 L 283.832031 217.921875 L 285.234375 217.984375 L 286.636719 218.042969 L 288.039062 218.105469 L 290.84375 218.222656 L 292.246094 218.285156 L 293.648438 218.34375 L 295.050781 218.40625 L 297.855469 218.523438 L 299.257812 218.585938 L 302.0625 218.703125 L 303.464844 218.765625 L 304.867188 218.824219 L 306.269531 218.886719 L 309.074219 219.003906 L 310.476562 219.066406 L 313.28125 219.183594 L 314.683594 219.246094 L 316.085938 219.304688 L 317.488281 219.367188 L 320.292969 219.484375 L 321.695312 219.546875 L 323.097656 219.605469 L 324.5 219.667969 L 327.304688 219.785156 L 328.707031 219.847656 L 331.511719 219.964844 L 332.914062 220.027344 L 334.316406 220.085938 L 335.71875 220.148438 L 338.523438 220.265625 L 339.925781 220.328125 L 342.730469 220.445312 L 344.132812 220.507812 L 345.535156 220.566406 L 346.9375 220.628906 L 349.742188 220.746094 L 351.144531 220.808594 L 352.546875 220.867188 L 353.949219 220.929688 L 356.753906 221.046875 L 358.15625 221.109375 L 360.960938 221.226562 L 362.363281 221.289062 L 363.765625 221.347656 L 365.167969 221.410156 L 367.972656 221.527344 L 369.375 221.589844 L 370.777344 221.648438 "/>
<path fill="none" stroke-width="1.066978" stroke-linecap="butt" stroke-linejoin="round" stroke="rgb(0%, 0%, 0%)" stroke-opacity="1" stroke-miterlimit="1" d="M 228.953125 177.335938 L 229.472656 177.5625 L 229.992188 177.785156 L 230.511719 178.011719 L 231.03125 178.234375 L 231.554688 178.460938 L 232.59375 178.90625 L 233.113281 179.132812 L 233.636719 179.355469 L 234.15625 179.582031 L 235.195312 180.027344 L 235.714844 180.253906 L 236.238281 180.476562 L 236.757812 180.703125 L 237.277344 180.925781 L 237.796875 181.152344 L 238.316406 181.375 L 238.839844 181.597656 L 239.359375 181.824219 L 239.878906 182.046875 L 240.398438 182.273438 L 240.917969 182.496094 L 241.441406 182.71875 L 241.960938 182.945312 L 242.480469 183.167969 L 243 183.394531 L 243.519531 183.617188 L 244.042969 183.84375 L 245.082031 184.289062 L 245.601562 184.515625 L 246.121094 184.738281 L 246.644531 184.964844 L 247.683594 185.410156 L 248.203125 185.636719 L 248.726562 185.859375 L 249.246094 186.085938 L 249.765625 186.308594 L 250.285156 186.535156 L 250.804688 186.757812 L 251.328125 186.980469 L 251.847656 187.207031 L 252.367188 187.429688 L 252.886719 187.65625 L 253.40625 187.878906 L 253.929688 188.101562 L 254.449219 188.328125 L 254.96875 188.550781 L 255.488281 188.777344 L 256.007812 189 L 256.53125 189.226562 L 257.570312 189.671875 L 258.089844 189.898438 L 258.609375 190.121094 L 259.132812 190.347656 L 260.171875 190.792969 L 260.691406 191.019531 L 261.210938 191.242188 L 261.734375 191.46875 L 262.253906 191.691406 L 262.773438 191.917969 L 263.292969 192.140625 L 263.816406 192.363281 L 264.335938 192.589844 L 264.855469 192.8125 L 265.375 193.039062 L 265.894531 193.261719 L 266.417969 193.484375 L 266.9375 193.710938 L 267.457031 193.933594 L 267.976562 194.160156 L 268.496094 194.382812 L 269.019531 194.609375 L 270.058594 195.054688 L 270.578125 195.28125 L 271.097656 195.503906 L 271.621094 195.730469 L 272.660156 196.175781 L 273.179688 196.402344 L 273.699219 196.625 L 274.222656 196.851562 L 274.742188 197.074219 L 275.261719 197.300781 L 276.300781 197.746094 L 276.824219 197.972656 L 277.34375 198.195312 L 277.863281 198.421875 L 278.382812 198.644531 L 278.90625 198.867188 L 279.425781 199.09375 L 279.945312 199.316406 L 280.464844 199.542969 "/>
<path fill="none" stroke-width="1.066978" stroke-linecap="butt" stroke-linejoin="round" stroke="rgb(0%, 0%, 0%)" stroke-opacity="1" stroke-miterlimit="1" d="M 228.953125 177.335938 L 229.742188 177.03125 L 230.535156 176.722656 L 232.121094 176.113281 L 232.910156 175.804688 L 233.703125 175.5 L 234.496094 175.191406 L 235.289062 174.886719 L 236.078125 174.578125 L 236.871094 174.273438 L 237.664062 173.964844 L 238.457031 173.660156 L 239.246094 173.351562 L 240.039062 173.046875 L 240.832031 172.738281 L 241.625 172.433594 L 242.417969 172.125 L 243.207031 171.820312 L 244 171.511719 L 244.792969 171.207031 L 245.585938 170.898438 L 246.375 170.59375 L 247.167969 170.285156 L 247.960938 169.980469 L 248.753906 169.671875 L 249.542969 169.367188 L 250.335938 169.058594 L 251.128906 168.753906 L 251.921875 168.445312 L 252.710938 168.140625 L 253.503906 167.832031 L 254.296875 167.527344 L 255.089844 167.21875 L 255.878906 166.914062 L 256.671875 166.605469 L 257.464844 166.300781 L 258.257812 165.992188 L 259.046875 165.6875 L 259.839844 165.378906 L 260.632812 165.074219 L 261.425781 164.765625 L 262.214844 164.460938 L 263.007812 164.152344 L 263.800781 163.847656 L 264.59375 163.539062 L 265.382812 163.234375 L 266.175781 162.925781 L 266.96875 162.621094 L 267.761719 162.3125 L 268.550781 162.007812 L 269.34375 161.699219 L 270.136719 161.394531 L 270.929688 161.085938 L 271.71875 160.78125 L 272.511719 160.472656 L 273.304688 160.167969 L 274.097656 159.859375 L 274.890625 159.554688 L 275.679688 159.246094 L 276.472656 158.941406 L 277.265625 158.632812 L 278.058594 158.328125 L 278.847656 158.019531 L 279.640625 157.714844 L 280.433594 157.40625 L 281.226562 157.101562 L 282.015625 156.792969 L 282.808594 156.488281 L 283.601562 156.179688 L 284.394531 155.875 L 285.183594 155.566406 L 285.976562 155.261719 L 286.769531 154.953125 L 287.5625 154.648438 L 288.351562 154.339844 L 289.144531 154.035156 L 289.9375 153.726562 L 290.730469 153.421875 L 291.519531 153.113281 L 292.3125 152.808594 L 293.105469 152.5 L 293.898438 152.195312 L 294.6875 151.886719 L 295.480469 151.582031 L 296.273438 151.273438 L 297.066406 150.96875 L 297.855469 150.660156 L 298.648438 150.355469 L 299.441406 150.046875 L 300.234375 149.742188 L 301.023438 149.433594 L 301.816406 149.128906 L 302.609375 148.820312 L 303.402344 148.515625 L 304.195312 148.207031 L 304.984375 147.902344 L 305.777344 147.59375 L 306.570312 147.289062 L 307.363281 146.980469 "/>
<path fill="none" stroke-width="1.066978" stroke-linecap="butt" stroke-linejoin="round" stroke="rgb(0%, 0%, 0%)" stroke-opacity="1" stroke-miterlimit="1" d="M 280.464844 199.542969 L 281.378906 199.765625 L 282.289062 199.988281 L 283.203125 200.210938 L 284.113281 200.433594 L 285.027344 200.660156 L 285.9375 200.882812 L 286.851562 201.105469 L 287.761719 201.328125 L 289.589844 201.773438 L 290.5 202 L 291.414062 202.222656 L 292.324219 202.445312 L 293.238281 202.667969 L 294.148438 202.890625 L 295.0625 203.113281 L 295.972656 203.339844 L 296.886719 203.5625 L 297.796875 203.785156 L 298.710938 204.007812 L 299.621094 204.230469 L 300.535156 204.453125 L 301.445312 204.679688 L 303.273438 205.125 L 304.183594 205.347656 L 305.097656 205.570312 L 306.007812 205.792969 L 306.921875 206.019531 L 307.832031 206.242188 L 308.746094 206.464844 L 309.65625 206.6875 L 310.570312 206.910156 L 311.480469 207.132812 L 312.394531 207.355469 L 313.304688 207.582031 L 314.21875 207.804688 L 315.128906 208.027344 L 316.957031 208.472656 L 317.867188 208.695312 L 318.78125 208.921875 L 319.691406 209.144531 L 320.605469 209.367188 L 321.515625 209.589844 L 322.429688 209.8125 L 323.339844 210.035156 L 324.253906 210.261719 L 325.164062 210.484375 L 326.078125 210.707031 L 326.988281 210.929688 L 327.902344 211.152344 L 328.8125 211.375 L 329.726562 211.601562 L 330.640625 211.824219 L 331.550781 212.046875 L 332.464844 212.269531 L 333.375 212.492188 L 334.289062 212.714844 L 335.199219 212.941406 L 336.113281 213.164062 L 337.023438 213.386719 L 337.9375 213.609375 L 338.847656 213.832031 L 339.761719 214.054688 L 340.671875 214.28125 L 342.5 214.726562 L 343.410156 214.949219 L 344.324219 215.171875 L 345.234375 215.394531 L 346.148438 215.621094 L 347.058594 215.84375 L 347.972656 216.066406 L 348.882812 216.289062 L 349.796875 216.511719 L 350.707031 216.734375 L 351.621094 216.960938 L 352.53125 217.183594 L 353.445312 217.40625 L 354.355469 217.628906 L 356.183594 218.074219 L 357.09375 218.300781 L 358.007812 218.523438 L 358.917969 218.746094 L 359.832031 218.96875 L 360.742188 219.191406 L 361.65625 219.414062 L 362.566406 219.640625 L 363.480469 219.863281 L 364.390625 220.085938 L 365.304688 220.308594 L 366.214844 220.53125 L 367.128906 220.753906 L 368.039062 220.980469 L 369.867188 221.425781 L 370.777344 221.648438 "/>
<path fill="none" stroke-width="1.066978" stroke-linecap="butt" stroke-linejoin="round" stroke="rgb(0%, 0%, 0%)" stroke-opacity="1" stroke-miterlimit="1" d="M 370.777344 221.648438 L 373.183594 223 L 374.386719 223.671875 L 377.996094 225.699219 L 379.199219 226.371094 L 381.605469 227.722656 L 382.808594 228.394531 L 386.417969 230.421875 L 387.621094 231.09375 L 391.230469 233.121094 L 392.433594 233.792969 L 396.042969 235.820312 L 397.246094 236.492188 L 400.855469 238.519531 L 402.058594 239.191406 L 405.667969 241.21875 L 406.871094 241.890625 L 410.480469 243.917969 L 411.683594 244.589844 L 414.089844 245.941406 L 415.292969 246.613281 L 418.902344 248.640625 L 420.105469 249.3125 L 423.714844 251.339844 L 424.917969 252.011719 L 428.527344 254.039062 L 429.730469 254.710938 L 433.339844 256.738281 L 434.542969 257.410156 L 438.152344 259.4375 L 439.355469 260.109375 L 442.964844 262.136719 L 444.167969 262.808594 L 446.574219 264.160156 L 447.777344 264.832031 L 451.386719 266.859375 L 452.589844 267.53125 L 456.199219 269.558594 L 457.402344 270.230469 L 461.011719 272.257812 L 462.214844 272.929688 L 465.824219 274.957031 L 467.027344 275.628906 L 470.636719 277.65625 L 471.839844 278.328125 L 475.449219 280.355469 L 476.652344 281.027344 L 479.058594 282.378906 L 480.261719 283.050781 L 483.871094 285.078125 L 485.074219 285.75 L 488.683594 287.777344 L 489.886719 288.449219 "/>
<path fill="none" stroke-width="1.066978" stroke-linecap="butt" stroke-linejoin="round" stroke="rgb(0%, 0%, 0%)" stroke-opacity="1" stroke-miterlimit="1" d="M 370.777344 221.648438 L 372.214844 219.929688 L 372.9375 219.074219 L 375.8125 215.636719 L 376.535156 214.777344 L 377.253906 213.917969 L 377.972656 213.0625 L 379.410156 211.34375 L 380.132812 210.484375 L 381.570312 208.765625 L 382.289062 207.910156 L 383.007812 207.050781 L 383.730469 206.191406 L 386.605469 202.753906 L 387.328125 201.898438 L 390.203125 198.460938 L 390.925781 197.601562 L 391.644531 196.746094 L 393.800781 194.167969 L 394.523438 193.308594 L 395.242188 192.449219 L 395.960938 191.59375 L 397.398438 189.875 L 398.121094 189.015625 L 400.277344 186.4375 L 400.996094 185.582031 L 401.71875 184.722656 L 404.59375 181.285156 L 405.316406 180.429688 L 408.191406 176.992188 L 408.914062 176.132812 L 409.632812 175.273438 L 410.351562 174.417969 L 411.789062 172.699219 L 412.511719 171.839844 L 413.949219 170.121094 L 414.667969 169.265625 L 415.386719 168.40625 L 416.109375 167.546875 L 418.984375 164.109375 L 419.707031 163.253906 L 422.582031 159.816406 L 423.304688 158.957031 L 424.023438 158.101562 L 426.179688 155.523438 L 426.902344 154.664062 L 428.339844 152.945312 L 429.058594 152.089844 L 429.777344 151.230469 L 430.5 150.371094 L 432.65625 147.792969 L 433.375 146.9375 L 434.097656 146.078125 L 436.972656 142.640625 L 437.695312 141.78125 L 438.414062 140.925781 L 440.570312 138.347656 L 441.292969 137.488281 L 442.011719 136.628906 "/>
<path fill="none" stroke-width="1.066978" stroke-linecap="butt" stroke-linejoin="round" stroke="rgb(0%, 0%, 0%)" stroke-opacity="1" stroke-miterlimit="1" d="M 489.886719 288.449219 L 490.425781 288.742188 L 490.960938 289.035156 L 491.496094 289.324219 L 492.03125 289.617188 L 492.566406 289.90625 L 493.101562 290.199219 L 493.636719 290.488281 L 494.171875 290.78125 L 494.710938 291.074219 L 495.246094 291.363281 L 495.78125 291.65625 L 496.316406 291.945312 L 496.851562 292.238281 L 497.386719 292.527344 L 497.921875 292.820312 L 498.457031 293.109375 L 498.992188 293.402344 L 499.53125 293.695312 L 500.066406 293.984375 L 500.601562 294.277344 L 501.136719 294.566406 L 501.671875 294.859375 L 502.207031 295.148438 L 503.277344 295.734375 L 503.816406 296.023438 L 504.351562 296.316406 L 504.886719 296.605469 L 505.421875 296.898438 L 505.957031 297.1875 L 507.027344 297.773438 L 507.5625 298.0625 L 508.101562 298.355469 L 508.636719 298.644531 L 509.171875 298.9375 L 509.707031 299.226562 L 510.242188 299.519531 L 510.777344 299.808594 L 511.847656 300.394531 L 512.382812 300.683594 L 512.921875 300.976562 L 513.457031 301.265625 L 513.992188 301.558594 L 514.527344 301.847656 L 515.597656 302.433594 L 516.132812 302.722656 L 516.667969 303.015625 L 517.207031 303.304688 L 517.742188 303.597656 L 518.277344 303.886719 L 519.347656 304.472656 L 519.882812 304.761719 L 520.417969 305.054688 L 520.953125 305.34375 L 521.492188 305.636719 L 522.027344 305.925781 L 523.097656 306.511719 L 523.632812 306.800781 L 524.167969 307.09375 L 524.703125 307.382812 L 525.238281 307.675781 L 525.773438 307.964844 L 526.3125 308.257812 L 526.847656 308.546875 L 527.917969 309.132812 L 528.453125 309.421875 L 528.988281 309.714844 L 529.523438 310.003906 L 530.058594 310.296875 L 530.597656 310.585938 L 531.667969 311.171875 L 532.203125 311.460938 L 532.738281 311.753906 L 533.273438 312.042969 L 533.808594 312.335938 L 534.34375 312.625 L 534.882812 312.917969 L 535.417969 313.210938 L 535.953125 313.5 L 536.488281 313.792969 L 537.023438 314.082031 L 537.558594 314.375 L 538.09375 314.664062 L 539.164062 315.25 L 539.703125 315.539062 L 540.238281 315.832031 L 540.773438 316.121094 L 541.308594 316.414062 L 541.84375 316.703125 L 542.378906 316.996094 L 542.914062 317.285156 "/>
<path fill="none" stroke-width="1.066978" stroke-linecap="butt" stroke-linejoin="round" stroke="rgb(0%, 0%, 0%)" stroke-opacity="1" stroke-miterlimit="1" d="M 489.886719 288.449219 L 490.855469 288.796875 L 492.792969 289.484375 L 493.757812 289.832031 L 495.695312 290.519531 L 496.664062 290.867188 L 497.632812 291.210938 L 498.597656 291.554688 L 499.566406 291.902344 L 501.503906 292.589844 L 502.46875 292.9375 L 504.40625 293.625 L 505.375 293.972656 L 506.339844 294.316406 L 507.308594 294.660156 L 508.277344 295.007812 L 509.246094 295.351562 L 510.210938 295.695312 L 511.179688 296.042969 L 513.117188 296.730469 L 514.082031 297.078125 L 516.988281 298.109375 L 517.953125 298.457031 L 519.890625 299.144531 L 520.859375 299.492188 L 521.828125 299.835938 L 522.792969 300.179688 L 523.761719 300.527344 L 525.699219 301.214844 L 526.664062 301.5625 L 528.601562 302.25 L 529.570312 302.597656 L 530.535156 302.941406 L 531.503906 303.285156 L 532.472656 303.632812 L 533.441406 303.976562 L 534.40625 304.320312 L 535.375 304.667969 L 537.3125 305.355469 L 538.277344 305.703125 L 540.214844 306.390625 L 541.183594 306.738281 L 542.152344 307.082031 L 543.117188 307.425781 L 544.085938 307.773438 L 546.023438 308.460938 L 546.988281 308.808594 L 549.894531 309.839844 L 550.859375 310.1875 L 552.796875 310.875 L 553.765625 311.222656 L 554.730469 311.566406 L 555.699219 311.910156 L 556.667969 312.257812 L 557.636719 312.601562 L 558.601562 312.945312 L 559.570312 313.292969 L 561.507812 313.980469 L 562.472656 314.328125 L 564.410156 315.015625 L 565.378906 315.363281 L 566.347656 315.707031 L 567.3125 316.050781 L 568.28125 316.398438 L 570.21875 317.085938 L 571.183594 317.433594 L 573.121094 318.121094 L 574.089844 318.46875 L 575.054688 318.8125 L 576.023438 319.15625 L 576.992188 319.503906 L 577.960938 319.847656 L 578.925781 320.191406 L 579.894531 320.539062 L 581.832031 321.226562 L 582.796875 321.570312 L 583.765625 321.917969 L 585.703125 322.605469 "/>
<path fill="none" stroke-width="1.066978" stroke-linecap="butt" stroke-linejoin="round" stroke="rgb(0%, 0%, 0%)" stroke-opacity="1" stroke-miterlimit="1" d="M 163.664062 252.378906 L 164.925781 252.414062 L 166.183594 252.449219 L 168.707031 252.519531 L 169.964844 252.554688 L 171.226562 252.589844 L 172.488281 252.621094 L 173.746094 252.65625 L 175.007812 252.691406 L 176.265625 252.726562 L 178.789062 252.796875 L 180.046875 252.832031 L 182.570312 252.902344 L 183.828125 252.933594 L 185.089844 252.96875 L 186.347656 253.003906 L 188.871094 253.074219 L 190.128906 253.109375 L 192.652344 253.179688 L 193.910156 253.214844 L 195.171875 253.25 L 196.429688 253.28125 L 198.953125 253.351562 L 200.210938 253.386719 L 201.472656 253.421875 L 202.730469 253.457031 L 205.253906 253.527344 L 206.511719 253.5625 L 207.773438 253.59375 L 209.035156 253.628906 L 210.292969 253.664062 L 211.554688 253.699219 L 212.8125 253.734375 L 215.335938 253.804688 L 216.59375 253.839844 L 217.855469 253.875 L 219.117188 253.90625 L 220.375 253.941406 L 221.636719 253.976562 L 222.894531 254.011719 L 225.417969 254.082031 L 226.675781 254.117188 L 227.9375 254.152344 L 229.195312 254.1875 L 230.457031 254.21875 L 231.71875 254.253906 L 232.976562 254.289062 L 235.5 254.359375 L 236.757812 254.394531 L 238.019531 254.429688 L 239.277344 254.464844 L 241.800781 254.535156 L 243.058594 254.566406 L 245.582031 254.636719 L 246.839844 254.671875 L 248.101562 254.707031 L 249.359375 254.742188 L 251.882812 254.8125 L 253.140625 254.847656 L 254.402344 254.878906 L 255.664062 254.914062 L 256.921875 254.949219 L 258.183594 254.984375 L 259.441406 255.019531 L 261.964844 255.089844 L 263.222656 255.125 L 264.484375 255.160156 L 265.742188 255.191406 L 268.265625 255.261719 L 269.523438 255.296875 L 272.046875 255.367188 L 273.304688 255.402344 L 274.566406 255.4375 L 275.824219 255.472656 L 277.085938 255.503906 L 278.347656 255.539062 L 279.605469 255.574219 L 282.128906 255.644531 L 283.386719 255.679688 L 284.648438 255.714844 L 285.90625 255.75 L 288.429688 255.820312 "/>
<path fill="none" stroke-width="1.066978" stroke-linecap="butt" stroke-linejoin="round" stroke="rgb(0%, 0%, 0%)" stroke-opacity="1" stroke-miterlimit="1" d="M 489.886719 288.449219 L 490.1875 288.890625 L 490.488281 289.328125 L 490.789062 289.769531 L 491.089844 290.207031 L 491.390625 290.648438 L 491.6875 291.089844 L 491.988281 291.527344 L 492.289062 291.96875 L 492.589844 292.40625 L 492.890625 292.847656 L 493.191406 293.285156 L 493.488281 293.726562 L 493.789062 294.164062 L 494.089844 294.605469 L 494.390625 295.042969 L 494.691406 295.484375 L 494.992188 295.921875 L 495.292969 296.363281 L 495.589844 296.800781 L 495.890625 297.242188 L 496.191406 297.679688 L 496.492188 298.121094 L 496.792969 298.558594 L 497.09375 299 L 497.390625 299.4375 L 497.691406 299.878906 L 497.992188 300.316406 L 498.292969 300.757812 L 498.59375 301.195312 L 498.894531 301.636719 L 499.191406 302.078125 L 499.492188 302.515625 L 499.792969 302.957031 L 500.09375 303.394531 L 500.394531 303.835938 L 500.695312 304.273438 L 500.992188 304.714844 L 501.292969 305.152344 L 501.59375 305.59375 L 501.894531 306.03125 L 502.195312 306.472656 L 502.496094 306.910156 L 502.796875 307.351562 L 503.09375 307.789062 L 503.394531 308.230469 L 503.695312 308.667969 L 503.996094 309.109375 L 504.296875 309.546875 L 504.597656 309.988281 L 504.894531 310.425781 L 505.195312 310.867188 L 505.496094 311.304688 L 505.796875 311.746094 L 506.097656 312.183594 L 506.398438 312.625 L 506.695312 313.066406 L 506.996094 313.503906 L 507.296875 313.945312 L 507.597656 314.382812 L 507.898438 314.824219 L 508.199219 315.261719 L 508.496094 315.703125 L 508.796875 316.140625 L 509.097656 316.582031 L 509.398438 317.019531 L 509.699219 317.460938 L 510 317.898438 L 510.296875 318.339844 L 510.597656 318.777344 L 510.898438 319.21875 L 511.199219 319.65625 L 511.5 320.097656 L 511.800781 320.535156 L 512.101562 320.976562 L 512.398438 321.414062 L 512.699219 321.855469 L 513 322.292969 L 513.300781 322.734375 L 513.601562 323.171875 L 513.902344 323.613281 L 514.199219 324.050781 L 514.800781 324.933594 L 515.101562 325.371094 L 515.402344 325.8125 L 515.703125 326.25 L 516 326.691406 L 516.300781 327.128906 L 516.601562 327.570312 L 516.902344 328.007812 L 517.203125 328.449219 L 517.503906 328.886719 L 517.800781 329.328125 L 518.101562 329.765625 L 518.402344 330.207031 L 518.703125 330.644531 L 519.003906 331.085938 L 519.304688 331.523438 L 519.605469 331.964844 "/>
<path fill="none" stroke-width="1.066978" stroke-linecap="butt" stroke-linejoin="round" stroke="rgb(0%, 0%, 0%)" stroke-opacity="1" stroke-miterlimit="1" d="M 542.914062 317.285156 L 543.78125 317.394531 L 544.210938 317.449219 L 544.644531 317.503906 L 545.078125 317.554688 L 545.507812 317.609375 L 545.941406 317.664062 L 546.371094 317.71875 L 546.804688 317.769531 L 547.238281 317.824219 L 547.667969 317.878906 L 548.101562 317.933594 L 548.535156 317.984375 L 548.964844 318.039062 L 549.832031 318.148438 L 550.261719 318.199219 L 551.128906 318.308594 L 551.558594 318.363281 L 551.992188 318.414062 L 552.421875 318.46875 L 553.289062 318.578125 L 553.71875 318.628906 L 554.585938 318.738281 L 555.015625 318.792969 L 555.449219 318.84375 L 555.882812 318.898438 L 556.3125 318.953125 L 556.746094 319.007812 L 557.175781 319.058594 L 558.042969 319.167969 L 558.472656 319.222656 L 558.90625 319.273438 L 559.339844 319.328125 L 559.769531 319.382812 L 560.636719 319.492188 L 561.066406 319.542969 L 561.933594 319.652344 L 562.363281 319.707031 L 562.796875 319.757812 L 563.226562 319.8125 L 564.09375 319.921875 L 564.523438 319.972656 L 565.390625 320.082031 L 565.820312 320.136719 L 566.253906 320.1875 L 566.6875 320.242188 L 567.117188 320.296875 L 567.550781 320.351562 L 567.980469 320.402344 L 568.847656 320.511719 L 569.277344 320.566406 L 569.710938 320.617188 L 570.144531 320.671875 L 570.574219 320.726562 L 571.007812 320.78125 L 571.441406 320.832031 L 571.871094 320.886719 L 572.738281 320.996094 L 573.167969 321.046875 L 573.601562 321.101562 L 574.03125 321.15625 L 574.898438 321.265625 L 575.328125 321.316406 L 576.195312 321.425781 L 576.625 321.480469 L 577.058594 321.53125 L 577.492188 321.585938 L 577.921875 321.640625 L 578.355469 321.695312 L 578.785156 321.746094 L 579.652344 321.855469 L 580.082031 321.910156 L 580.515625 321.960938 L 580.949219 322.015625 L 581.378906 322.070312 L 581.8125 322.125 L 582.246094 322.175781 L 582.675781 322.230469 L 583.542969 322.339844 L 583.972656 322.390625 L 584.40625 322.445312 L 584.835938 322.5 L 585.269531 322.554688 L 585.703125 322.605469 "/>
<path fill="none" stroke-width="1.066978" stroke-linecap="butt" stroke-linejoin="round" stroke="rgb(0%, 0%, 0%)" stroke-opacity="1" stroke-miterlimit="1" d="M 542.914062 317.285156 L 542.445312 317.582031 L 542.207031 317.730469 L 541.503906 318.175781 L 541.265625 318.324219 L 540.5625 318.769531 L 540.324219 318.917969 L 539.855469 319.214844 L 539.617188 319.363281 L 538.914062 319.808594 L 538.675781 319.957031 L 538.207031 320.253906 L 537.96875 320.398438 L 537.265625 320.84375 L 537.027344 320.992188 L 536.558594 321.289062 L 536.320312 321.4375 L 535.617188 321.882812 L 535.378906 322.03125 L 534.910156 322.328125 L 534.671875 322.476562 L 533.96875 322.921875 L 533.730469 323.070312 L 533.027344 323.515625 L 532.789062 323.660156 L 532.320312 323.957031 L 532.082031 324.105469 L 531.378906 324.550781 L 531.140625 324.699219 L 530.671875 324.996094 L 530.433594 325.144531 L 529.730469 325.589844 L 529.492188 325.738281 L 529.023438 326.035156 L 528.785156 326.183594 L 528.082031 326.628906 L 527.84375 326.773438 L 527.140625 327.21875 L 526.902344 327.367188 L 526.433594 327.664062 L 526.195312 327.8125 L 525.492188 328.257812 L 525.253906 328.40625 L 524.785156 328.703125 L 524.546875 328.851562 L 523.84375 329.296875 L 523.605469 329.445312 L 523.136719 329.742188 L 522.898438 329.886719 L 522.195312 330.332031 L 521.957031 330.480469 L 521.488281 330.777344 L 521.25 330.925781 L 520.546875 331.371094 L 520.308594 331.519531 L 519.605469 331.964844 "/>
<path fill="none" stroke-width="1.066978" stroke-linecap="butt" stroke-linejoin="round" stroke="rgb(0%, 0%, 0%)" stroke-opacity="1" stroke-miterlimit="1" d="M 585.703125 322.605469 L 585.035156 322.703125 L 582.363281 323.078125 L 581.695312 323.175781 L 579.691406 323.457031 L 579.027344 323.550781 L 578.359375 323.648438 L 575.6875 324.023438 L 575.019531 324.121094 L 572.347656 324.496094 L 571.679688 324.59375 L 571.011719 324.6875 L 570.347656 324.78125 L 569.011719 324.96875 L 568.34375 325.066406 L 565.671875 325.441406 L 565.003906 325.539062 L 562.332031 325.914062 L 561.667969 326.011719 L 558.328125 326.480469 L 557.660156 326.578125 L 554.988281 326.953125 L 554.320312 327.050781 L 553.65625 327.144531 L 551.652344 327.425781 L 550.984375 327.523438 L 548.3125 327.898438 L 547.644531 327.996094 L 545.640625 328.277344 L 544.976562 328.371094 L 544.308594 328.46875 L 541.636719 328.84375 L 540.96875 328.941406 L 538.296875 329.316406 L 537.628906 329.414062 L 536.960938 329.507812 L 536.296875 329.601562 L 534.960938 329.789062 L 534.292969 329.886719 L 531.621094 330.261719 L 530.953125 330.359375 L 528.28125 330.734375 L 527.617188 330.828125 L 526.949219 330.925781 L 524.277344 331.300781 L 523.609375 331.398438 L 520.9375 331.773438 L 520.269531 331.871094 L 519.605469 331.964844 "/>
<path fill="none" stroke-width="1.066978" stroke-linecap="butt" stroke-linejoin="round" stroke="rgb(0%, 0%, 0%)" stroke-opacity="1" stroke-miterlimit="1" d="M 442.011719 136.628906 L 439.292969 136.839844 L 437.929688 136.945312 L 436.570312 137.046875 L 432.492188 137.363281 L 431.128906 137.46875 L 429.769531 137.570312 L 425.691406 137.886719 L 424.328125 137.988281 L 420.25 138.304688 L 418.890625 138.40625 L 417.53125 138.511719 L 416.167969 138.617188 L 414.808594 138.722656 L 413.449219 138.824219 L 410.730469 139.035156 L 409.367188 139.140625 L 408.007812 139.246094 L 406.648438 139.347656 L 402.570312 139.664062 L 401.207031 139.765625 L 397.128906 140.082031 L 395.769531 140.183594 L 394.40625 140.289062 L 391.6875 140.5 L 390.328125 140.601562 L 388.96875 140.707031 L 387.605469 140.8125 L 386.246094 140.917969 L 384.886719 141.019531 L 380.808594 141.335938 L 379.445312 141.441406 L 378.085938 141.542969 L 374.007812 141.859375 L 372.644531 141.960938 L 368.566406 142.277344 L 367.207031 142.378906 L 365.847656 142.484375 L 364.484375 142.589844 L 363.125 142.695312 L 361.765625 142.796875 L 359.046875 143.007812 L 357.683594 143.113281 L 356.324219 143.21875 L 354.964844 143.320312 L 352.246094 143.53125 L 350.882812 143.636719 L 349.523438 143.738281 L 345.445312 144.054688 L 344.085938 144.15625 L 342.722656 144.261719 L 340.003906 144.472656 L 338.644531 144.574219 L 337.285156 144.679688 L 335.921875 144.785156 L 333.203125 144.996094 L 331.84375 145.097656 L 330.484375 145.203125 L 329.121094 145.308594 L 327.761719 145.414062 L 326.402344 145.515625 L 322.324219 145.832031 L 320.960938 145.933594 L 316.882812 146.25 L 315.523438 146.351562 L 314.160156 146.457031 L 311.441406 146.667969 L 310.082031 146.769531 L 307.363281 146.980469 "/>
<path fill="none" stroke-width="1.066978" stroke-linecap="butt" stroke-linejoin="round" stroke="rgb(0%, 0%, 0%)" stroke-opacity="1" stroke-miterlimit="1" d="M 442.011719 136.628906 L 443.519531 136.554688 L 448.042969 136.320312 L 449.550781 136.246094 L 451.058594 136.167969 L 452.570312 136.089844 L 454.078125 136.015625 L 458.601562 135.78125 L 460.109375 135.707031 L 464.632812 135.472656 L 466.140625 135.398438 L 467.652344 135.320312 L 469.160156 135.242188 L 470.667969 135.167969 L 475.191406 134.933594 L 476.699219 134.859375 L 481.222656 134.625 L 482.734375 134.550781 L 485.75 134.394531 L 487.257812 134.320312 L 491.78125 134.085938 L 493.289062 134.011719 L 496.304688 133.855469 L 497.816406 133.777344 L 499.324219 133.703125 L 503.847656 133.46875 L 505.355469 133.394531 L 508.371094 133.238281 L 509.878906 133.164062 L 511.386719 133.085938 L 512.898438 133.007812 L 514.40625 132.929688 L 515.914062 132.855469 L 520.4375 132.621094 L 521.945312 132.546875 L 524.960938 132.390625 L 526.46875 132.316406 L 527.980469 132.238281 L 530.996094 132.082031 L 532.503906 132.007812 L 537.027344 131.773438 L 538.535156 131.699219 L 541.550781 131.542969 L 543.0625 131.46875 L 547.585938 131.234375 L 549.09375 131.160156 L 553.617188 130.925781 L 555.125 130.851562 L 556.632812 130.773438 L 558.144531 130.695312 L 559.652344 130.617188 L 561.160156 130.542969 L 564.175781 130.386719 L 565.683594 130.3125 L 570.207031 130.078125 L 571.714844 130.003906 L 573.226562 129.925781 L 576.242188 129.769531 L 577.75 129.695312 L 580.765625 129.539062 L 582.273438 129.464844 L 586.796875 129.230469 L 588.308594 129.15625 L 591.324219 129 "/>
<path fill="none" stroke-width="1.066978" stroke-linecap="butt" stroke-linejoin="round" stroke="rgb(0%, 0%, 0%)" stroke-opacity="1" stroke-miterlimit="1" d="M 442.011719 136.628906 L 441.539062 136.269531 L 441.066406 135.914062 L 434.449219 130.882812 L 433.980469 130.523438 L 433.507812 130.167969 L 425.945312 124.417969 L 425.472656 124.0625 L 422.164062 121.546875 L 421.695312 121.1875 L 418.386719 118.671875 L 417.914062 118.316406 L 410.351562 112.566406 L 409.878906 112.210938 L 409.410156 111.851562 L 402.320312 106.460938 L 401.847656 106.105469 L 397.59375 102.871094 L 397.125 102.511719 L 395.234375 101.074219 "/>
<path fill="none" stroke-width="1.066978" stroke-linecap="butt" stroke-linejoin="round" stroke="rgb(0%, 0%, 0%)" stroke-opacity="1" stroke-miterlimit="1" d="M 442.011719 136.628906 L 442.675781 136.242188 L 443.34375 135.851562 L 444.671875 135.070312 L 445.339844 134.679688 L 446.003906 134.289062 L 446.671875 133.898438 L 448 133.117188 L 448.667969 132.726562 L 449.332031 132.335938 L 450 131.949219 L 451.328125 131.167969 L 451.996094 130.777344 L 453.324219 129.996094 L 453.992188 129.605469 L 454.65625 129.214844 L 455.324219 128.824219 L 455.988281 128.433594 L 456.652344 128.046875 L 457.320312 127.65625 L 457.984375 127.265625 L 458.652344 126.875 L 459.980469 126.09375 L 460.648438 125.703125 L 461.3125 125.3125 L 461.980469 124.921875 L 463.308594 124.140625 L 463.976562 123.753906 L 465.304688 122.972656 L 465.972656 122.582031 L 466.636719 122.191406 L 467.304688 121.800781 L 468.632812 121.019531 L 469.300781 120.628906 L 469.964844 120.238281 L 470.632812 119.847656 L 471.296875 119.460938 L 471.960938 119.070312 L 472.628906 118.679688 L 473.292969 118.289062 L 473.960938 117.898438 L 475.289062 117.117188 L 475.957031 116.726562 L 477.285156 115.945312 L 477.953125 115.558594 L 478.617188 115.167969 L 479.285156 114.777344 L 480.613281 113.996094 L 481.28125 113.605469 L 481.945312 113.214844 L 482.613281 112.824219 L 483.941406 112.042969 L 484.609375 111.652344 L 485.273438 111.265625 L 485.9375 110.875 L 486.605469 110.484375 L 487.269531 110.09375 L 487.9375 109.703125 L 489.265625 108.921875 L 489.933594 108.53125 L 490.597656 108.140625 L 491.265625 107.75 L 491.929688 107.363281 L 492.59375 106.972656 L 493.261719 106.582031 L 493.925781 106.191406 L 494.59375 105.800781 L 495.921875 105.019531 L 496.589844 104.628906 L 497.917969 103.847656 L 498.585938 103.457031 L 499.25 103.070312 L 499.917969 102.679688 L 501.246094 101.898438 L 501.914062 101.507812 L 502.578125 101.117188 L 503.246094 100.726562 L 504.574219 99.945312 L 505.242188 99.554688 L 505.90625 99.167969 L 506.574219 98.777344 L 507.902344 97.996094 "/>
<path fill="none" stroke-width="1.066978" stroke-linecap="butt" stroke-linejoin="round" stroke="rgb(0%, 0%, 0%)" stroke-opacity="1" stroke-miterlimit="1" d="M 442.011719 136.628906 L 442.597656 135.945312 L 443.777344 134.578125 L 444.363281 133.894531 L 444.953125 133.210938 L 445.539062 132.527344 L 446.128906 131.84375 L 446.714844 131.160156 L 447.894531 129.792969 L 448.480469 129.109375 L 449.070312 128.421875 L 449.65625 127.738281 L 450.246094 127.054688 L 450.832031 126.371094 L 451.421875 125.6875 L 452.007812 125.003906 L 453.1875 123.636719 L 453.773438 122.953125 L 454.363281 122.269531 L 454.949219 121.585938 L 455.539062 120.902344 L 456.125 120.214844 L 457.304688 118.847656 L 457.890625 118.164062 L 458.480469 117.480469 L 459.066406 116.796875 L 459.65625 116.113281 L 460.242188 115.429688 L 460.832031 114.746094 L 461.417969 114.0625 L 462.597656 112.695312 L 463.183594 112.007812 L 463.773438 111.324219 L 464.359375 110.640625 L 464.949219 109.957031 L 465.535156 109.273438 L 466.714844 107.90625 L 467.300781 107.222656 L 467.890625 106.539062 L 468.476562 105.855469 L 469.066406 105.171875 L 469.652344 104.488281 L 470.242188 103.800781 L 470.828125 103.117188 L 472.007812 101.75 L 472.59375 101.066406 L 473.183594 100.382812 L 473.769531 99.699219 L 474.359375 99.015625 L 474.945312 98.332031 L 476.125 96.964844 L 476.710938 96.28125 L 477.300781 95.597656 L 477.886719 94.910156 L 478.476562 94.226562 L 479.0625 93.542969 L 479.652344 92.859375 L 480.238281 92.175781 L 481.417969 90.808594 L 482.003906 90.125 L 482.59375 89.441406 L 483.179688 88.757812 L 483.769531 88.074219 L 484.355469 87.390625 L 484.945312 86.703125 L 485.535156 86.019531 L 486.121094 85.335938 L 486.710938 84.652344 L 487.296875 83.96875 L 487.886719 83.285156 L 488.472656 82.601562 L 489.652344 81.234375 L 490.238281 80.550781 L 490.828125 79.867188 L 491.414062 79.183594 L 492.003906 78.496094 L 492.589844 77.8125 L 493.179688 77.128906 L 493.765625 76.445312 L 494.945312 75.078125 L 495.53125 74.394531 L 496.121094 73.710938 L 496.707031 73.027344 L 497.296875 72.34375 L 497.882812 71.660156 L 498.472656 70.976562 L 499.0625 70.289062 L 499.648438 69.605469 L 500.238281 68.921875 "/>
<path fill="none" stroke-width="1.066978" stroke-linecap="butt" stroke-linejoin="round" stroke="rgb(0%, 0%, 0%)" stroke-opacity="1" stroke-miterlimit="1" d="M 591.324219 129 L 592.203125 128.753906 L 593.082031 128.503906 L 593.960938 128.257812 L 594.839844 128.007812 L 596.597656 127.515625 L 597.476562 127.265625 L 598.355469 127.019531 L 599.234375 126.769531 L 600.113281 126.523438 L 600.992188 126.273438 L 601.871094 126.027344 L 602.75 125.777344 L 604.507812 125.285156 L 605.386719 125.035156 L 606.265625 124.789062 L 607.144531 124.539062 L 608.023438 124.292969 L 608.902344 124.042969 L 609.78125 123.796875 L 610.660156 123.546875 L 612.417969 123.054688 L 613.296875 122.804688 L 614.175781 122.558594 L 615.054688 122.308594 L 615.933594 122.0625 L 616.8125 121.8125 L 617.691406 121.566406 L 618.570312 121.316406 L 620.328125 120.824219 L 621.207031 120.574219 L 622.085938 120.328125 L 622.964844 120.078125 L 623.84375 119.832031 L 624.722656 119.582031 L 626.480469 119.089844 L 627.359375 118.839844 L 628.238281 118.59375 L 629.117188 118.34375 L 629.996094 118.097656 L 630.875 117.847656 L 631.753906 117.601562 L 632.632812 117.351562 L 634.390625 116.859375 L 635.269531 116.609375 L 636.148438 116.363281 L 637.027344 116.113281 L 637.90625 115.867188 L 638.789062 115.617188 L 639.667969 115.371094 L 640.546875 115.121094 L 642.304688 114.628906 L 643.183594 114.378906 L 644.0625 114.132812 L 644.941406 113.882812 L 645.820312 113.636719 L 646.699219 113.386719 L 648.457031 112.894531 L 649.335938 112.644531 L 650.214844 112.398438 L 651.09375 112.148438 L 651.972656 111.902344 L 652.851562 111.652344 L 653.730469 111.40625 L 654.609375 111.15625 L 656.367188 110.664062 L 657.246094 110.414062 L 658.125 110.167969 L 659.003906 109.917969 L 659.882812 109.671875 L 660.761719 109.421875 L 661.640625 109.175781 L 662.519531 108.925781 L 664.277344 108.433594 L 665.15625 108.183594 L 666.035156 107.9375 L 666.914062 107.6875 L 667.792969 107.441406 L 668.671875 107.191406 L 669.550781 106.945312 L 670.429688 106.695312 L 672.1875 106.203125 L 673.066406 105.953125 L 673.945312 105.707031 L 674.824219 105.457031 L 675.703125 105.210938 L 676.582031 104.960938 L 678.339844 104.46875 "/>
<path fill="none" stroke-width="1.066978" stroke-linecap="butt" stroke-linejoin="round" stroke="rgb(0%, 0%, 0%)" stroke-opacity="1" stroke-miterlimit="1" d="M 163.664062 252.378906 L 164.460938 252.226562 L 165.253906 252.074219 L 166.046875 251.925781 L 166.84375 251.773438 L 167.636719 251.621094 L 168.433594 251.46875 L 169.226562 251.316406 L 170.023438 251.164062 L 170.816406 251.011719 L 171.609375 250.863281 L 172.40625 250.710938 L 173.199219 250.558594 L 173.996094 250.40625 L 174.789062 250.253906 L 175.585938 250.101562 L 176.378906 249.949219 L 177.171875 249.800781 L 177.96875 249.648438 L 178.761719 249.496094 L 179.558594 249.34375 L 181.144531 249.039062 L 181.941406 248.886719 L 182.734375 248.738281 L 183.53125 248.585938 L 184.324219 248.433594 L 185.121094 248.28125 L 186.707031 247.976562 L 187.503906 247.824219 L 188.296875 247.675781 L 189.09375 247.523438 L 189.886719 247.371094 L 190.683594 247.21875 L 192.269531 246.914062 L 193.066406 246.761719 L 193.859375 246.613281 L 194.65625 246.460938 L 196.242188 246.15625 L 197.039062 246.003906 L 197.832031 245.851562 L 198.628906 245.699219 L 199.421875 245.546875 L 200.21875 245.398438 L 201.804688 245.09375 L 202.601562 244.941406 L 203.394531 244.789062 L 204.191406 244.636719 L 204.984375 244.484375 L 205.777344 244.335938 L 206.574219 244.183594 L 207.367188 244.03125 L 208.164062 243.878906 L 208.957031 243.726562 L 209.753906 243.574219 L 210.546875 243.421875 L 211.339844 243.273438 L 212.136719 243.121094 L 212.929688 242.96875 L 213.726562 242.816406 L 214.519531 242.664062 L 215.316406 242.511719 L 216.109375 242.359375 L 216.902344 242.210938 L 217.699219 242.058594 L 218.492188 241.90625 L 219.289062 241.753906 L 220.875 241.449219 L 221.671875 241.296875 L 222.464844 241.148438 L 223.261719 240.996094 L 224.054688 240.84375 L 224.851562 240.691406 L 226.4375 240.386719 L 227.234375 240.234375 L 228.027344 240.082031 L 228.824219 239.933594 L 229.617188 239.78125 L 230.414062 239.628906 L 232 239.324219 L 232.796875 239.171875 L 233.589844 239.019531 L 234.386719 238.871094 L 235.972656 238.566406 L 236.769531 238.414062 L 237.5625 238.261719 L 238.359375 238.109375 L 239.152344 237.957031 L 239.949219 237.808594 L 241.535156 237.503906 L 242.332031 237.351562 "/>
<path fill="none" stroke-width="1.066978" stroke-linecap="butt" stroke-linejoin="round" stroke="rgb(0%, 0%, 0%)" stroke-opacity="1" stroke-miterlimit="1" d="M 395.234375 101.074219 L 396.679688 100.652344 L 397.402344 100.445312 L 398.128906 100.234375 L 400.296875 99.601562 L 401.023438 99.390625 L 403.914062 98.546875 L 404.640625 98.335938 L 406.808594 97.703125 L 407.535156 97.492188 L 409.703125 96.859375 L 410.429688 96.648438 L 412.597656 96.015625 L 413.324219 95.804688 L 414.769531 95.382812 L 415.492188 95.175781 L 416.214844 94.964844 L 416.941406 94.753906 L 419.109375 94.121094 L 419.835938 93.910156 L 422.003906 93.277344 L 422.730469 93.066406 L 425.621094 92.222656 L 426.347656 92.011719 L 428.515625 91.378906 L 429.242188 91.167969 L 431.410156 90.535156 L 432.136719 90.324219 L 432.859375 90.113281 L 433.582031 89.90625 L 434.304688 89.695312 L 435.03125 89.484375 L 437.921875 88.640625 L 438.648438 88.429688 L 440.816406 87.796875 L 441.542969 87.585938 L 443.710938 86.953125 L 444.4375 86.742188 L 446.605469 86.109375 L 447.332031 85.898438 L 450.222656 85.054688 L 450.949219 84.847656 L 453.117188 84.214844 L 453.84375 84.003906 L 456.011719 83.371094 L 456.738281 83.160156 L 459.628906 82.316406 L 460.355469 82.105469 L 462.523438 81.472656 L 463.25 81.261719 L 465.417969 80.628906 L 466.144531 80.417969 L 466.867188 80.207031 "/>
<path fill="none" stroke-width="1.066978" stroke-linecap="butt" stroke-linejoin="round" stroke="rgb(0%, 0%, 0%)" stroke-opacity="1" stroke-miterlimit="1" d="M 466.867188 80.207031 L 468.9375 81.105469 L 469.355469 81.285156 L 472.667969 82.722656 L 473.085938 82.902344 L 475.984375 84.160156 L 476.402344 84.339844 L 479.714844 85.777344 L 480.132812 85.957031 L 483.445312 87.394531 L 483.863281 87.574219 L 486.761719 88.832031 L 487.179688 89.011719 L 490.492188 90.449219 L 490.910156 90.628906 L 494.222656 92.066406 L 494.640625 92.246094 L 497.539062 93.503906 L 497.957031 93.683594 L 501.269531 95.121094 L 501.6875 95.300781 L 505 96.738281 L 505.417969 96.917969 L 507.902344 97.996094 "/>
<path fill="none" stroke-width="1.066978" stroke-linecap="butt" stroke-linejoin="round" stroke="rgb(0%, 0%, 0%)" stroke-opacity="1" stroke-miterlimit="1" d="M 466.867188 80.207031 L 468.125 80.25 L 469.382812 80.289062 L 470.644531 80.328125 L 473.160156 80.40625 L 474.421875 80.445312 L 476.9375 80.523438 L 478.195312 80.566406 L 479.457031 80.605469 L 483.230469 80.722656 L 484.492188 80.761719 L 487.007812 80.839844 L 488.269531 80.882812 L 492.042969 81 L 493.304688 81.039062 L 495.820312 81.117188 L 497.082031 81.15625 L 498.339844 81.199219 L 500.855469 81.277344 L 502.117188 81.316406 L 505.890625 81.433594 L 507.152344 81.476562 L 509.667969 81.554688 L 510.929688 81.59375 L 514.703125 81.710938 L 515.964844 81.75 L 517.222656 81.792969 L 518.480469 81.832031 L 519.742188 81.871094 L 523.515625 81.988281 L 524.777344 82.027344 L 526.035156 82.066406 L 527.292969 82.109375 L 528.554688 82.148438 L 532.328125 82.265625 L 533.589844 82.304688 L 534.847656 82.34375 L 536.105469 82.386719 L 537.363281 82.425781 L 538.625 82.464844 L 541.140625 82.542969 L 542.402344 82.582031 L 544.917969 82.660156 L 546.175781 82.703125 L 547.4375 82.742188 L 549.953125 82.820312 L 551.214844 82.859375 L 554.988281 82.976562 L 556.25 83.019531 L 560.023438 83.136719 L 561.285156 83.175781 L 563.800781 83.253906 L 565.0625 83.292969 L 566.320312 83.335938 L 568.835938 83.414062 L 570.097656 83.453125 L 572.613281 83.53125 L 573.875 83.570312 L 575.132812 83.613281 L 577.648438 83.691406 L 578.910156 83.730469 L 581.425781 83.808594 L 582.6875 83.847656 L 583.945312 83.886719 L 585.203125 83.929688 L 586.460938 83.96875 L 587.722656 84.007812 L 591.496094 84.125 "/>
<path fill="none" stroke-width="1.066978" stroke-linecap="butt" stroke-linejoin="round" stroke="rgb(0%, 0%, 0%)" stroke-opacity="1" stroke-miterlimit="1" d="M 507.902344 97.996094 L 508.746094 97.855469 L 509.59375 97.714844 L 512.125 97.292969 L 512.96875 97.15625 L 513.8125 97.015625 L 514.660156 96.875 L 518.035156 96.3125 L 518.878906 96.175781 L 519.726562 96.035156 L 523.945312 95.332031 L 524.792969 95.191406 L 525.636719 95.054688 L 529.011719 94.492188 L 529.859375 94.351562 L 530.703125 94.210938 L 531.546875 94.074219 L 534.078125 93.652344 L 534.925781 93.511719 L 536.613281 93.230469 L 537.457031 93.09375 L 539.988281 92.671875 L 540.835938 92.53125 L 543.367188 92.109375 L 544.210938 91.972656 L 545.054688 91.832031 L 545.902344 91.691406 L 549.277344 91.128906 L 550.121094 90.992188 L 550.96875 90.851562 L 555.1875 90.148438 L 556.035156 90.011719 L 560.253906 89.308594 L 561.101562 89.167969 L 561.945312 89.027344 L 562.789062 88.890625 L 565.320312 88.46875 L 566.167969 88.328125 L 567.855469 88.046875 L 568.699219 87.910156 L 570.386719 87.628906 L 571.234375 87.488281 L 574.609375 86.925781 L 575.453125 86.789062 L 576.300781 86.648438 L 580.519531 85.945312 L 581.363281 85.808594 L 582.210938 85.667969 L 586.429688 84.964844 L 587.277344 84.828125 L 591.496094 84.125 "/>
<path fill="none" stroke-width="1.066978" stroke-linecap="butt" stroke-linejoin="round" stroke="rgb(0%, 0%, 0%)" stroke-opacity="1" stroke-miterlimit="1" d="M 507.902344 97.996094 L 507.824219 97.703125 L 507.75 97.40625 L 507.4375 96.234375 L 507.363281 95.941406 L 507.285156 95.644531 L 506.972656 94.472656 L 506.898438 94.175781 L 506.507812 92.710938 L 506.433594 92.414062 L 506.042969 90.949219 L 505.96875 90.652344 L 505.65625 89.480469 L 505.582031 89.183594 L 505.191406 87.71875 L 505.117188 87.421875 L 504.726562 85.957031 L 504.652344 85.660156 L 504.339844 84.488281 L 504.265625 84.191406 L 503.875 82.726562 L 503.800781 82.429688 L 503.410156 80.964844 L 503.335938 80.667969 L 503.023438 79.496094 L 502.949219 79.199219 L 502.558594 77.734375 L 502.484375 77.4375 L 502.09375 75.972656 L 502.019531 75.675781 L 501.707031 74.503906 L 501.628906 74.207031 L 501.554688 73.914062 L 501.242188 72.742188 L 501.167969 72.445312 L 500.777344 70.980469 L 500.703125 70.683594 L 500.390625 69.511719 L 500.3125 69.214844 L 500.238281 68.921875 "/>
<path fill="none" stroke-width="1.066978" stroke-linecap="butt" stroke-linejoin="round" stroke="rgb(0%, 0%, 0%)" stroke-opacity="1" stroke-miterlimit="1" d="M 591.496094 84.125 L 592.375 84.332031 L 593.253906 84.535156 L 594.128906 84.742188 L 595.007812 84.949219 L 595.882812 85.152344 L 596.761719 85.359375 L 597.636719 85.5625 L 599.394531 85.976562 L 600.269531 86.179688 L 601.148438 86.386719 L 602.023438 86.589844 L 602.902344 86.796875 L 603.777344 87.003906 L 604.65625 87.207031 L 605.53125 87.414062 L 606.410156 87.617188 L 607.289062 87.824219 L 608.164062 88.03125 L 609.042969 88.234375 L 609.917969 88.441406 L 610.796875 88.644531 L 611.671875 88.851562 L 612.550781 89.058594 L 613.429688 89.261719 L 614.304688 89.46875 L 615.183594 89.671875 L 616.058594 89.878906 L 616.9375 90.085938 L 617.8125 90.289062 L 618.691406 90.496094 L 619.566406 90.699219 L 621.324219 91.113281 L 622.199219 91.316406 L 623.078125 91.523438 L 623.953125 91.726562 L 624.832031 91.933594 L 625.707031 92.140625 L 626.585938 92.34375 L 627.464844 92.550781 L 628.339844 92.753906 L 629.21875 92.960938 L 630.09375 93.167969 L 630.972656 93.371094 L 631.847656 93.578125 L 632.726562 93.78125 L 633.601562 93.988281 L 634.480469 94.195312 L 635.359375 94.398438 L 636.234375 94.605469 L 637.113281 94.808594 L 637.988281 95.015625 L 638.867188 95.222656 L 639.742188 95.425781 L 640.621094 95.632812 L 641.5 95.835938 L 642.375 96.042969 L 643.253906 96.25 L 644.128906 96.453125 L 645.007812 96.660156 L 645.882812 96.863281 L 646.761719 97.070312 L 647.636719 97.277344 L 648.515625 97.480469 L 649.394531 97.6875 L 650.269531 97.890625 L 651.148438 98.097656 L 652.023438 98.304688 L 652.902344 98.507812 L 653.777344 98.714844 L 654.65625 98.917969 L 655.535156 99.125 L 656.410156 99.332031 L 657.289062 99.535156 L 658.164062 99.742188 L 659.042969 99.945312 L 659.917969 100.152344 L 660.796875 100.359375 L 661.671875 100.5625 L 662.550781 100.769531 L 663.429688 100.972656 L 664.304688 101.179688 L 665.183594 101.386719 L 666.058594 101.589844 L 666.9375 101.796875 L 667.8125 102 L 668.691406 102.207031 L 669.566406 102.414062 L 670.445312 102.617188 L 671.324219 102.824219 L 672.199219 103.027344 L 673.078125 103.234375 L 673.953125 103.441406 L 674.832031 103.644531 L 675.707031 103.851562 L 676.585938 104.054688 L 677.464844 104.261719 L 678.339844 104.46875 "/>
<path fill="none" stroke-width="1.066978" stroke-linecap="butt" stroke-linejoin="round" stroke="rgb(0%, 0%, 0%)" stroke-opacity="1" stroke-miterlimit="1" d="M 500.238281 68.921875 L 500.816406 68.515625 L 501.394531 68.105469 L 502.550781 67.292969 L 503.128906 66.882812 L 503.710938 66.476562 L 504.289062 66.066406 L 504.867188 65.660156 L 505.445312 65.25 L 506.601562 64.4375 L 507.183594 64.027344 L 507.761719 63.621094 L 508.339844 63.210938 L 509.496094 62.398438 L 510.074219 61.988281 L 510.65625 61.582031 L 511.234375 61.171875 L 511.8125 60.765625 L 512.390625 60.355469 L 512.96875 59.949219 L 513.550781 59.542969 L 514.128906 59.132812 L 514.707031 58.726562 L 515.285156 58.316406 L 515.863281 57.910156 L 516.441406 57.5 L 517.023438 57.09375 L 517.601562 56.6875 L 518.179688 56.277344 L 518.757812 55.871094 L 519.335938 55.460938 L 519.914062 55.054688 L 520.496094 54.644531 L 521.652344 53.832031 L 522.230469 53.421875 L 522.808594 53.015625 L 523.386719 52.605469 L 523.96875 52.199219 L 524.546875 51.789062 L 525.703125 50.976562 L 526.28125 50.566406 L 526.859375 50.160156 L 527.441406 49.75 L 528.019531 49.34375 L 528.597656 48.933594 L 529.753906 48.121094 L 530.332031 47.710938 L 530.914062 47.304688 L 531.492188 46.894531 L 532.070312 46.488281 L 532.648438 46.078125 L 533.804688 45.265625 L 534.386719 44.855469 L 534.964844 44.449219 L 535.542969 44.039062 L 536.699219 43.226562 L 537.277344 42.816406 L 537.859375 42.410156 L 538.4375 42 L 539.015625 41.59375 L 539.59375 41.183594 L 540.75 40.371094 L 541.332031 39.960938 L 541.910156 39.554688 L 542.488281 39.144531 L 543.066406 38.738281 L 543.644531 38.328125 L 544.222656 37.921875 L 544.804688 37.515625 L 545.382812 37.105469 L 545.960938 36.699219 L 546.539062 36.289062 L 547.117188 35.882812 L 547.695312 35.472656 L 548.277344 35.066406 L 548.855469 34.660156 L 549.433594 34.25 L 550.011719 33.84375 L 550.589844 33.433594 L 551.167969 33.027344 L 551.75 32.617188 L 552.90625 31.804688 L 553.484375 31.394531 L 554.0625 30.988281 L 554.640625 30.578125 L 555.222656 30.171875 L 555.800781 29.761719 L 556.957031 28.949219 L 557.535156 28.539062 "/>
<path fill="none" stroke-width="1.066978" stroke-linecap="butt" stroke-linejoin="round" stroke="rgb(0%, 0%, 0%)" stroke-opacity="1" stroke-miterlimit="1" d="M 500.238281 68.921875 L 500.203125 68.480469 L 500.171875 68.042969 L 500.136719 67.601562 L 500.105469 67.160156 L 500.070312 66.71875 L 500.039062 66.277344 L 500.003906 65.839844 L 499.972656 65.398438 L 499.902344 64.515625 L 499.871094 64.074219 L 499.835938 63.636719 L 499.804688 63.195312 L 499.769531 62.753906 L 499.738281 62.3125 L 499.703125 61.871094 L 499.671875 61.429688 L 499.636719 60.992188 L 499.605469 60.550781 L 499.570312 60.109375 L 499.539062 59.667969 L 499.503906 59.226562 L 499.472656 58.789062 L 499.4375 58.347656 L 499.40625 57.90625 L 499.371094 57.464844 L 499.339844 57.023438 L 499.304688 56.585938 L 499.273438 56.144531 L 499.238281 55.703125 L 499.207031 55.261719 L 499.171875 54.820312 L 499.140625 54.378906 L 499.105469 53.941406 L 499.074219 53.5 L 499.039062 53.058594 L 499.007812 52.617188 L 498.972656 52.175781 L 498.941406 51.738281 L 498.871094 50.855469 L 498.839844 50.414062 L 498.804688 49.972656 L 498.773438 49.535156 L 498.738281 49.09375 L 498.707031 48.652344 L 498.671875 48.210938 L 498.640625 47.769531 L 498.605469 47.328125 L 498.574219 46.890625 L 498.539062 46.449219 L 498.507812 46.007812 L 498.472656 45.566406 L 498.441406 45.125 L 498.40625 44.6875 L 498.375 44.246094 L 498.339844 43.804688 L 498.308594 43.363281 L 498.273438 42.921875 L 498.242188 42.484375 L 498.207031 42.042969 L 498.175781 41.601562 L 498.140625 41.160156 L 498.109375 40.71875 L 498.074219 40.277344 L 498.042969 39.839844 L 498.007812 39.398438 L 497.976562 38.957031 L 497.941406 38.515625 L 497.910156 38.074219 L 497.875 37.636719 L 497.84375 37.195312 L 497.773438 36.3125 L 497.742188 35.871094 L 497.707031 35.429688 L 497.675781 34.992188 L 497.640625 34.550781 L 497.609375 34.109375 L 497.574219 33.667969 L 497.542969 33.226562 L 497.507812 32.789062 L 497.476562 32.347656 L 497.441406 31.90625 L 497.410156 31.464844 L 497.375 31.023438 L 497.34375 30.585938 L 497.308594 30.144531 L 497.277344 29.703125 L 497.242188 29.261719 L 497.210938 28.820312 L 497.175781 28.378906 L 497.144531 27.941406 L 497.109375 27.5 L 497.078125 27.058594 L 497.042969 26.617188 L 497.011719 26.175781 L 496.976562 25.738281 L 496.945312 25.296875 "/>
<path fill="none" stroke-width="1.066978" stroke-linecap="butt" stroke-linejoin="round" stroke="rgb(0%, 0%, 0%)" stroke-opacity="1" stroke-miterlimit="1" d="M 557.535156 28.539062 L 556.925781 28.507812 L 556.3125 28.472656 L 555.699219 28.441406 L 555.089844 28.410156 L 554.476562 28.375 L 553.863281 28.34375 L 553.25 28.308594 L 552.640625 28.277344 L 552.027344 28.246094 L 551.414062 28.210938 L 550.804688 28.179688 L 550.191406 28.148438 L 549.578125 28.113281 L 548.96875 28.082031 L 548.355469 28.046875 L 547.742188 28.015625 L 547.132812 27.984375 L 546.519531 27.949219 L 545.90625 27.917969 L 545.296875 27.882812 L 544.070312 27.820312 L 543.460938 27.785156 L 542.847656 27.753906 L 542.234375 27.71875 L 541.621094 27.6875 L 541.011719 27.65625 L 540.398438 27.621094 L 539.785156 27.589844 L 539.175781 27.558594 L 538.5625 27.523438 L 537.949219 27.492188 L 537.339844 27.457031 L 536.113281 27.394531 L 535.503906 27.359375 L 534.890625 27.328125 L 534.277344 27.292969 L 533.667969 27.261719 L 533.054688 27.230469 L 532.441406 27.195312 L 531.832031 27.164062 L 531.21875 27.132812 L 530.605469 27.097656 L 529.992188 27.066406 L 529.382812 27.03125 L 528.15625 26.96875 L 527.546875 26.933594 L 526.933594 26.902344 L 526.320312 26.867188 L 525.710938 26.835938 L 525.097656 26.804688 L 524.484375 26.769531 L 523.875 26.738281 L 523.261719 26.703125 L 522.648438 26.671875 L 522.039062 26.640625 L 521.425781 26.605469 L 520.8125 26.574219 L 520.203125 26.542969 L 519.589844 26.507812 L 518.976562 26.476562 L 518.367188 26.441406 L 517.140625 26.378906 L 516.527344 26.34375 L 515.917969 26.3125 L 515.304688 26.277344 L 514.691406 26.246094 L 514.082031 26.214844 L 513.46875 26.179688 L 512.855469 26.148438 L 512.246094 26.113281 L 511.019531 26.050781 L 510.410156 26.015625 L 509.183594 25.953125 L 508.574219 25.917969 L 507.960938 25.886719 L 507.347656 25.851562 L 506.738281 25.820312 L 506.125 25.789062 L 505.511719 25.753906 L 504.898438 25.722656 L 504.289062 25.6875 L 503.0625 25.625 L 502.453125 25.589844 L 501.226562 25.527344 L 500.617188 25.492188 L 500.003906 25.460938 L 499.390625 25.425781 L 498.78125 25.394531 L 498.167969 25.363281 L 497.554688 25.328125 L 496.945312 25.296875 "/>
<path fill="none" stroke-width="1.066978" stroke-linecap="butt" stroke-linejoin="round" stroke="rgb(0%, 0%, 0%)" stroke-opacity="1" stroke-miterlimit="1" d="M 288.429688 255.820312 L 289.289062 255.8125 L 292.726562 255.796875 L 293.589844 255.792969 L 294.449219 255.785156 L 297.886719 255.769531 L 298.75 255.765625 L 299.609375 255.761719 L 300.46875 255.753906 L 303.046875 255.742188 L 303.910156 255.738281 L 305.628906 255.730469 L 306.488281 255.722656 L 308.207031 255.714844 L 309.070312 255.710938 L 311.648438 255.699219 L 312.507812 255.691406 L 314.226562 255.683594 L 315.089844 255.679688 L 316.808594 255.671875 L 317.667969 255.664062 L 319.386719 255.65625 L 320.25 255.652344 L 322.828125 255.640625 L 323.6875 255.632812 L 324.546875 255.628906 L 325.410156 255.625 L 328.847656 255.609375 L 329.707031 255.601562 L 330.570312 255.597656 L 334.867188 255.578125 L 335.730469 255.570312 L 340.027344 255.550781 L 340.886719 255.542969 L 341.75 255.539062 L 346.046875 255.519531 L 346.910156 255.511719 L 351.207031 255.492188 L 352.070312 255.488281 L 352.929688 255.480469 L 356.367188 255.464844 L 357.230469 255.460938 L 358.089844 255.457031 L 358.949219 255.449219 L 362.386719 255.433594 L 363.25 255.429688 L 364.109375 255.421875 L 367.546875 255.40625 L 368.410156 255.402344 L 369.269531 255.398438 L 370.128906 255.390625 L 372.707031 255.378906 L 373.570312 255.375 "/>
<path fill="none" stroke-width="1.066978" stroke-linecap="butt" stroke-linejoin="round" stroke="rgb(0%, 0%, 0%)" stroke-opacity="1" stroke-miterlimit="1" d="M 288.429688 255.820312 L 289.261719 255.472656 L 290.09375 255.128906 L 290.921875 254.78125 L 292.585938 254.09375 L 293.417969 253.746094 L 295.082031 253.058594 L 295.914062 252.710938 L 297.578125 252.023438 L 298.410156 251.675781 L 300.074219 250.988281 L 300.90625 250.640625 L 301.738281 250.296875 L 302.570312 249.949219 L 304.234375 249.261719 L 305.066406 248.914062 L 305.894531 248.570312 L 306.726562 248.226562 L 307.558594 247.878906 L 309.222656 247.191406 L 310.054688 246.84375 L 310.886719 246.5 L 311.71875 246.152344 L 313.382812 245.464844 L 314.214844 245.117188 L 315.878906 244.429688 L 316.710938 244.082031 L 318.375 243.394531 L 319.207031 243.046875 L 320.039062 242.703125 L 320.867188 242.359375 L 321.699219 242.011719 L 322.53125 241.667969 L 323.363281 241.320312 L 325.027344 240.632812 L 325.859375 240.285156 L 327.523438 239.597656 L 328.355469 239.25 L 330.019531 238.5625 L 330.851562 238.214844 L 332.515625 237.527344 L 333.347656 237.179688 L 334.179688 236.835938 L 335.011719 236.488281 L 335.839844 236.144531 L 336.671875 235.800781 L 337.503906 235.453125 L 339.167969 234.765625 L 340 234.417969 L 341.664062 233.730469 L 342.496094 233.382812 L 344.160156 232.695312 L 344.992188 232.347656 L 345.824219 232.003906 L 346.65625 231.65625 L 348.320312 230.96875 L 349.152344 230.621094 L 349.980469 230.277344 L 350.8125 229.933594 L 351.644531 229.585938 L 353.308594 228.898438 L 354.140625 228.550781 L 355.804688 227.863281 L 356.636719 227.515625 L 357.46875 227.171875 L 358.300781 226.824219 L 359.964844 226.136719 L 360.796875 225.789062 L 362.460938 225.101562 L 363.292969 224.753906 L 364.125 224.410156 L 364.953125 224.066406 L 365.785156 223.71875 L 367.449219 223.03125 L 368.28125 222.683594 L 369.113281 222.339844 L 369.945312 221.992188 L 370.777344 221.648438 "/>
<path fill="none" stroke-width="1.066978" stroke-linecap="butt" stroke-linejoin="round" stroke="rgb(0%, 0%, 0%)" stroke-opacity="1" stroke-miterlimit="1" d="M 373.570312 255.375 L 373.539062 255.035156 L 373.511719 254.691406 L 373.457031 254.011719 L 373.425781 253.671875 L 373.398438 253.332031 L 373.371094 252.988281 L 373.316406 252.308594 L 373.285156 251.96875 L 373.257812 251.628906 L 373.230469 251.285156 L 373.175781 250.605469 L 373.144531 250.265625 L 373.117188 249.921875 L 373.0625 249.242188 L 373.03125 248.902344 L 373.003906 248.5625 L 372.976562 248.21875 L 372.921875 247.539062 L 372.890625 247.199219 L 372.863281 246.859375 L 372.835938 246.515625 L 372.78125 245.835938 L 372.75 245.496094 L 372.722656 245.15625 L 372.695312 244.8125 L 372.667969 244.472656 L 372.636719 244.132812 L 372.582031 243.453125 L 372.554688 243.109375 L 372.527344 242.769531 L 372.496094 242.429688 L 372.46875 242.089844 L 372.441406 241.746094 L 372.414062 241.40625 L 372.382812 241.066406 L 372.328125 240.386719 L 372.300781 240.042969 L 372.273438 239.703125 L 372.242188 239.363281 L 372.1875 238.683594 L 372.160156 238.339844 L 372.132812 238 L 372.101562 237.660156 L 372.046875 236.980469 L 372.019531 236.636719 L 371.988281 236.296875 L 371.933594 235.617188 L 371.90625 235.273438 L 371.878906 234.933594 L 371.847656 234.59375 L 371.792969 233.914062 L 371.765625 233.570312 L 371.734375 233.230469 L 371.652344 232.210938 L 371.625 231.867188 L 371.59375 231.527344 L 371.511719 230.507812 L 371.484375 230.164062 L 371.453125 229.824219 L 371.398438 229.144531 L 371.371094 228.800781 L 371.339844 228.460938 L 371.257812 227.441406 L 371.230469 227.097656 L 371.199219 226.757812 L 371.117188 225.738281 L 371.085938 225.394531 L 370.976562 224.035156 L 370.945312 223.691406 L 370.835938 222.332031 L 370.804688 221.988281 L 370.777344 221.648438 "/>
<path fill="none" stroke-width="1.066978" stroke-linecap="butt" stroke-linejoin="round" stroke="rgb(0%, 0%, 0%)" stroke-opacity="1" stroke-miterlimit="1" d="M 242.332031 237.351562 L 241.804688 236.257812 L 241.703125 236.039062 L 241.070312 234.726562 L 240.96875 234.507812 L 240.335938 233.195312 L 240.234375 232.976562 L 239.601562 231.664062 L 239.5 231.445312 L 238.761719 229.914062 L 238.660156 229.695312 L 238.554688 229.480469 L 238.027344 228.386719 L 237.925781 228.167969 L 237.292969 226.855469 L 237.191406 226.636719 L 236.453125 225.105469 L 236.351562 224.886719 L 235.71875 223.574219 L 235.617188 223.355469 L 234.984375 222.042969 L 234.882812 221.824219 L 234.25 220.511719 L 234.148438 220.292969 L 233.410156 218.761719 L 233.308594 218.542969 L 232.675781 217.230469 L 232.574219 217.011719 L 231.941406 215.699219 "/>
<path fill="none" stroke-width="1.066978" stroke-linecap="butt" stroke-linejoin="round" stroke="rgb(0%, 0%, 0%)" stroke-opacity="1" stroke-miterlimit="1" d="M 242.332031 237.351562 L 243.628906 237.191406 L 244.925781 237.035156 L 246.222656 236.875 L 247.519531 236.71875 L 248.820312 236.558594 L 250.117188 236.398438 L 251.414062 236.242188 L 252.710938 236.082031 L 254.007812 235.925781 L 256.601562 235.605469 L 257.902344 235.449219 L 259.199219 235.289062 L 260.496094 235.132812 L 263.089844 234.8125 L 264.386719 234.65625 L 265.683594 234.496094 L 266.984375 234.335938 L 268.28125 234.179688 L 269.578125 234.019531 L 270.875 233.863281 L 273.46875 233.542969 L 274.765625 233.386719 L 276.066406 233.226562 L 277.363281 233.070312 L 279.957031 232.75 L 281.253906 232.59375 L 282.550781 232.433594 L 283.847656 232.277344 L 285.148438 232.117188 L 286.445312 231.957031 L 287.742188 231.800781 L 289.039062 231.640625 L 290.335938 231.484375 L 292.929688 231.164062 L 294.230469 231.007812 L 295.527344 230.847656 L 296.824219 230.691406 L 299.417969 230.371094 L 300.714844 230.214844 L 302.011719 230.054688 L 303.3125 229.898438 L 305.90625 229.578125 L 307.203125 229.421875 L 308.5 229.261719 L 309.796875 229.105469 L 311.09375 228.945312 L 312.394531 228.785156 L 313.691406 228.628906 L 314.988281 228.46875 L 316.285156 228.3125 L 318.878906 227.992188 L 320.175781 227.835938 L 321.476562 227.675781 L 322.773438 227.515625 L 324.070312 227.359375 L 325.367188 227.199219 L 326.664062 227.042969 L 329.257812 226.722656 L 330.558594 226.566406 L 331.855469 226.40625 L 333.152344 226.25 L 335.746094 225.929688 L 337.042969 225.773438 L 338.339844 225.613281 L 339.640625 225.457031 L 342.234375 225.136719 L 343.53125 224.980469 L 344.828125 224.820312 L 346.125 224.664062 L 347.421875 224.503906 L 348.722656 224.34375 L 350.019531 224.1875 L 351.316406 224.027344 L 352.613281 223.871094 L 355.207031 223.550781 L 356.507812 223.394531 L 357.804688 223.234375 L 359.101562 223.078125 L 361.695312 222.757812 L 362.992188 222.601562 L 364.289062 222.441406 L 365.589844 222.285156 L 368.183594 221.964844 L 369.480469 221.808594 L 370.777344 221.648438 "/>
<path fill="none" stroke-width="1.066978" stroke-linecap="butt" stroke-linejoin="round" stroke="rgb(0%, 0%, 0%)" stroke-opacity="1" stroke-miterlimit="1" d="M 163.664062 252.378906 L 164.355469 252.007812 L 165.042969 251.640625 L 165.734375 251.269531 L 166.421875 250.898438 L 167.804688 250.15625 L 168.492188 249.785156 L 169.183594 249.414062 L 169.871094 249.046875 L 170.5625 248.675781 L 171.25 248.304688 L 171.941406 247.933594 L 172.628906 247.5625 L 173.320312 247.191406 L 174.011719 246.824219 L 174.699219 246.453125 L 175.390625 246.082031 L 176.078125 245.710938 L 176.769531 245.339844 L 177.457031 244.96875 L 178.148438 244.597656 L 178.835938 244.230469 L 180.21875 243.488281 L 180.90625 243.117188 L 181.597656 242.746094 L 182.285156 242.375 L 182.976562 242.007812 L 183.664062 241.636719 L 185.046875 240.894531 L 185.734375 240.523438 L 186.425781 240.152344 L 187.113281 239.78125 L 187.804688 239.414062 L 188.492188 239.042969 L 189.183594 238.671875 L 189.871094 238.300781 L 191.253906 237.558594 L 191.941406 237.191406 L 192.632812 236.820312 L 193.320312 236.449219 L 194.011719 236.078125 L 194.699219 235.707031 L 195.390625 235.335938 L 196.078125 234.964844 L 196.769531 234.597656 L 197.460938 234.226562 L 198.148438 233.855469 L 198.839844 233.484375 L 199.527344 233.113281 L 200.21875 232.742188 L 200.90625 232.375 L 201.597656 232.003906 L 202.285156 231.632812 L 203.667969 230.890625 L 204.355469 230.519531 L 205.046875 230.148438 L 205.734375 229.78125 L 206.425781 229.410156 L 207.113281 229.039062 L 207.804688 228.667969 L 208.492188 228.296875 L 209.875 227.554688 L 210.5625 227.1875 L 211.253906 226.816406 L 211.941406 226.445312 L 212.632812 226.074219 L 213.320312 225.703125 L 214.011719 225.332031 L 214.699219 224.964844 L 216.082031 224.222656 L 216.769531 223.851562 L 217.460938 223.480469 L 218.148438 223.109375 L 218.839844 222.738281 L 219.527344 222.371094 L 220.21875 222 L 220.90625 221.628906 L 222.289062 220.886719 L 222.976562 220.515625 L 223.667969 220.148438 L 224.355469 219.777344 L 225.046875 219.40625 L 225.734375 219.035156 L 226.425781 218.664062 L 227.113281 218.292969 L 227.804688 217.921875 L 228.496094 217.554688 L 229.183594 217.183594 L 229.875 216.8125 L 230.5625 216.441406 L 231.253906 216.070312 L 231.941406 215.699219 "/>
<path fill-rule="nonzero" fill="rgb(0%, 0%, 0%)" fill-opacity="1" stroke-width="0.708661" stroke-linecap="round" stroke-linejoin="round" stroke="rgb(0%, 0%, 0%)" stroke-opacity="1" stroke-miterlimit="10" d="M 51.15625 273.769531 C 51.15625 277.5 48.128906 280.523438 44.398438 280.523438 C 40.667969 280.523438 37.644531 277.5 37.644531 273.769531 C 37.644531 270.039062 40.667969 267.011719 44.398438 267.011719 C 48.128906 267.011719 51.15625 270.039062 51.15625 273.769531 "/>
<path fill-rule="nonzero" fill="rgb(0%, 0%, 0%)" fill-opacity="1" stroke-width="0.708661" stroke-linecap="round" stroke-linejoin="round" stroke="rgb(0%, 0%, 0%)" stroke-opacity="1" stroke-miterlimit="10" d="M 170.421875 252.378906 C 170.421875 256.109375 167.394531 259.136719 163.664062 259.136719 C 159.933594 259.136719 156.910156 256.109375 156.910156 252.378906 C 156.910156 248.648438 159.933594 245.625 163.664062 245.625 C 167.394531 245.625 170.421875 248.648438 170.421875 252.378906 "/>
<path fill-rule="nonzero" fill="rgb(0%, 0%, 0%)" fill-opacity="1" stroke-width="0.708661" stroke-linecap="round" stroke-linejoin="round" stroke="rgb(0%, 0%, 0%)" stroke-opacity="1" stroke-miterlimit="10" d="M 295.183594 255.820312 C 295.183594 259.550781 292.160156 262.574219 288.429688 262.574219 C 284.695312 262.574219 281.671875 259.550781 281.671875 255.820312 C 281.671875 252.085938 284.695312 249.0625 288.429688 249.0625 C 292.160156 249.0625 295.183594 252.085938 295.183594 255.820312 "/>
<path fill-rule="nonzero" fill="rgb(0%, 0%, 0%)" fill-opacity="1" stroke-width="0.708661" stroke-linecap="round" stroke-linejoin="round" stroke="rgb(0%, 0%, 0%)" stroke-opacity="1" stroke-miterlimit="10" d="M 380.324219 255.375 C 380.324219 259.105469 377.300781 262.128906 373.570312 262.128906 C 369.835938 262.128906 366.8125 259.105469 366.8125 255.375 C 366.8125 251.644531 369.835938 248.617188 373.570312 248.617188 C 377.300781 248.617188 380.324219 251.644531 380.324219 255.375 "/>
<path fill-rule="nonzero" fill="rgb(0%, 0%, 0%)" fill-opacity="1" stroke-width="0.708661" stroke-linecap="round" stroke-linejoin="round" stroke="rgb(0%, 0%, 0%)" stroke-opacity="1" stroke-miterlimit="10" d="M 249.085938 237.351562 C 249.085938 241.082031 246.0625 244.109375 242.332031 244.109375 C 238.601562 244.109375 235.574219 241.082031 235.574219 237.351562 C 235.574219 233.621094 238.601562 230.59375 242.332031 230.59375 C 246.0625 230.59375 249.085938 233.621094 249.085938 237.351562 "/>
<path fill-rule="nonzero" fill="rgb(0%, 0%, 0%)" fill-opacity="1" stroke-width="0.708661" stroke-linecap="round" stroke-linejoin="round" stroke="rgb(0%, 0%, 0%)" stroke-opacity="1" stroke-miterlimit="10" d="M 238.699219 215.699219 C 238.699219 219.433594 235.675781 222.457031 231.941406 222.457031 C 228.210938 222.457031 225.1875 219.433594 225.1875 215.699219 C 225.1875 211.96875 228.210938 208.945312 231.941406 208.945312 C 235.675781 208.945312 238.699219 211.96875 238.699219 215.699219 "/>
<path fill-rule="nonzero" fill="rgb(0%, 0%, 0%)" fill-opacity="1" stroke-width="0.708661" stroke-linecap="round" stroke-linejoin="round" stroke="rgb(0%, 0%, 0%)" stroke-opacity="1" stroke-miterlimit="10" d="M 235.707031 177.335938 C 235.707031 181.070312 232.683594 184.09375 228.953125 184.09375 C 225.21875 184.09375 222.195312 181.070312 222.195312 177.335938 C 222.195312 173.605469 225.21875 170.582031 228.953125 170.582031 C 232.683594 170.582031 235.707031 173.605469 235.707031 177.335938 "/>
<path fill-rule="nonzero" fill="rgb(0%, 0%, 0%)" fill-opacity="1" stroke-width="0.708661" stroke-linecap="round" stroke-linejoin="round" stroke="rgb(0%, 0%, 0%)" stroke-opacity="1" stroke-miterlimit="10" d="M 287.222656 199.542969 C 287.222656 203.273438 284.195312 206.296875 280.464844 206.296875 C 276.734375 206.296875 273.710938 203.273438 273.710938 199.542969 C 273.710938 195.808594 276.734375 192.785156 280.464844 192.785156 C 284.195312 192.785156 287.222656 195.808594 287.222656 199.542969 "/>
<path fill-rule="nonzero" fill="rgb(0%, 0%, 0%)" fill-opacity="1" stroke-width="0.708661" stroke-linecap="round" stroke-linejoin="round" stroke="rgb(0%, 0%, 0%)" stroke-opacity="1" stroke-miterlimit="10" d="M 377.535156 221.648438 C 377.535156 225.378906 374.507812 228.40625 370.777344 228.40625 C 367.046875 228.40625 364.023438 225.378906 364.023438 221.648438 C 364.023438 217.917969 367.046875 214.890625 370.777344 214.890625 C 374.507812 214.890625 377.535156 217.917969 377.535156 221.648438 "/>
<path fill-rule="nonzero" fill="rgb(0%, 0%, 0%)" fill-opacity="1" stroke-width="0.708661" stroke-linecap="round" stroke-linejoin="round" stroke="rgb(0%, 0%, 0%)" stroke-opacity="1" stroke-miterlimit="10" d="M 496.644531 288.449219 C 496.644531 292.183594 493.621094 295.207031 489.886719 295.207031 C 486.15625 295.207031 483.132812 292.183594 483.132812 288.449219 C 483.132812 284.71875 486.15625 281.695312 489.886719 281.695312 C 493.621094 281.695312 496.644531 284.71875 496.644531 288.449219 "/>
<path fill-rule="nonzero" fill="rgb(0%, 0%, 0%)" fill-opacity="1" stroke-width="0.708661" stroke-linecap="round" stroke-linejoin="round" stroke="rgb(0%, 0%, 0%)" stroke-opacity="1" stroke-miterlimit="10" d="M 549.671875 317.285156 C 549.671875 321.019531 546.648438 324.042969 542.914062 324.042969 C 539.183594 324.042969 536.160156 321.019531 536.160156 317.285156 C 536.160156 313.554688 539.183594 310.53125 542.914062 310.53125 C 546.648438 310.53125 549.671875 313.554688 549.671875 317.285156 "/>
<path fill-rule="nonzero" fill="rgb(0%, 0%, 0%)" fill-opacity="1" stroke-width="0.708661" stroke-linecap="round" stroke-linejoin="round" stroke="rgb(0%, 0%, 0%)" stroke-opacity="1" stroke-miterlimit="10" d="M 592.457031 322.605469 C 592.457031 326.339844 589.433594 329.363281 585.703125 329.363281 C 581.972656 329.363281 578.945312 326.339844 578.945312 322.605469 C 578.945312 318.875 581.972656 315.851562 585.703125 315.851562 C 589.433594 315.851562 592.457031 318.875 592.457031 322.605469 "/>
<path fill-rule="nonzero" fill="rgb(0%, 0%, 0%)" fill-opacity="1" stroke-width="0.708661" stroke-linecap="round" stroke-linejoin="round" stroke="rgb(0%, 0%, 0%)" stroke-opacity="1" stroke-miterlimit="10" d="M 526.359375 331.964844 C 526.359375 335.695312 523.335938 338.71875 519.605469 338.71875 C 515.871094 338.71875 512.847656 335.695312 512.847656 331.964844 C 512.847656 328.234375 515.871094 325.207031 519.605469 325.207031 C 523.335938 325.207031 526.359375 328.234375 526.359375 331.964844 "/>
<path fill-rule="nonzero" fill="rgb(0%, 0%, 0%)" fill-opacity="1" stroke-width="0.708661" stroke-linecap="round" stroke-linejoin="round" stroke="rgb(0%, 0%, 0%)" stroke-opacity="1" stroke-miterlimit="10" d="M 448.765625 136.628906 C 448.765625 140.363281 445.742188 143.386719 442.011719 143.386719 C 438.28125 143.386719 435.253906 140.363281 435.253906 136.628906 C 435.253906 132.898438 438.28125 129.875 442.011719 129.875 C 445.742188 129.875 448.765625 132.898438 448.765625 136.628906 "/>
<path fill-rule="nonzero" fill="rgb(0%, 0%, 0%)" fill-opacity="1" stroke-width="0.708661" stroke-linecap="round" stroke-linejoin="round" stroke="rgb(0%, 0%, 0%)" stroke-opacity="1" stroke-miterlimit="10" d="M 314.117188 146.980469 C 314.117188 150.710938 311.09375 153.738281 307.363281 153.738281 C 303.628906 153.738281 300.605469 150.710938 300.605469 146.980469 C 300.605469 143.25 303.628906 140.222656 307.363281 140.222656 C 311.09375 140.222656 314.117188 143.25 314.117188 146.980469 "/>
<path fill-rule="nonzero" fill="rgb(0%, 0%, 0%)" fill-opacity="1" stroke-width="0.708661" stroke-linecap="round" stroke-linejoin="round" stroke="rgb(0%, 0%, 0%)" stroke-opacity="1" stroke-miterlimit="10" d="M 598.078125 129 C 598.078125 132.730469 595.054688 135.757812 591.324219 135.757812 C 587.59375 135.757812 584.566406 132.730469 584.566406 129 C 584.566406 125.269531 587.59375 122.246094 591.324219 122.246094 C 595.054688 122.246094 598.078125 125.269531 598.078125 129 "/>
<path fill-rule="nonzero" fill="rgb(0%, 0%, 0%)" fill-opacity="1" stroke-width="0.708661" stroke-linecap="round" stroke-linejoin="round" stroke="rgb(0%, 0%, 0%)" stroke-opacity="1" stroke-miterlimit="10" d="M 401.988281 101.074219 C 401.988281 104.808594 398.964844 107.832031 395.234375 107.832031 C 391.5 107.832031 388.476562 104.808594 388.476562 101.074219 C 388.476562 97.34375 391.5 94.320312 395.234375 94.320312 C 398.964844 94.320312 401.988281 97.34375 401.988281 101.074219 "/>
<path fill-rule="nonzero" fill="rgb(0%, 0%, 0%)" fill-opacity="1" stroke-width="0.708661" stroke-linecap="round" stroke-linejoin="round" stroke="rgb(0%, 0%, 0%)" stroke-opacity="1" stroke-miterlimit="10" d="M 473.621094 80.207031 C 473.621094 83.941406 470.597656 86.964844 466.867188 86.964844 C 463.136719 86.964844 460.109375 83.941406 460.109375 80.207031 C 460.109375 76.476562 463.136719 73.453125 466.867188 73.453125 C 470.597656 73.453125 473.621094 76.476562 473.621094 80.207031 "/>
<path fill-rule="nonzero" fill="rgb(0%, 0%, 0%)" fill-opacity="1" stroke-width="0.708661" stroke-linecap="round" stroke-linejoin="round" stroke="rgb(0%, 0%, 0%)" stroke-opacity="1" stroke-miterlimit="10" d="M 514.660156 97.996094 C 514.660156 101.726562 511.636719 104.75 507.902344 104.75 C 504.171875 104.75 501.148438 101.726562 501.148438 97.996094 C 501.148438 94.265625 504.171875 91.238281 507.902344 91.238281 C 511.636719 91.238281 514.660156 94.265625 514.660156 97.996094 "/>
<path fill-rule="nonzero" fill="rgb(0%, 0%, 0%)" fill-opacity="1" stroke-width="0.708661" stroke-linecap="round" stroke-linejoin="round" stroke="rgb(0%, 0%, 0%)" stroke-opacity="1" stroke-miterlimit="10" d="M 598.253906 84.125 C 598.253906 87.855469 595.230469 90.882812 591.496094 90.882812 C 587.765625 90.882812 584.742188 87.855469 584.742188 84.125 C 584.742188 80.394531 587.765625 77.371094 591.496094 77.371094 C 595.230469 77.371094 598.253906 80.394531 598.253906 84.125 "/>
<path fill-rule="nonzero" fill="rgb(0%, 0%, 0%)" fill-opacity="1" stroke-width="0.708661" stroke-linecap="round" stroke-linejoin="round" stroke="rgb(0%, 0%, 0%)" stroke-opacity="1" stroke-miterlimit="10" d="M 685.097656 104.46875 C 685.097656 108.199219 682.070312 111.222656 678.339844 111.222656 C 674.609375 111.222656 671.585938 108.199219 671.585938 104.46875 C 671.585938 100.734375 674.609375 97.710938 678.339844 97.710938 C 682.070312 97.710938 685.097656 100.734375 685.097656 104.46875 "/>
<path fill-rule="nonzero" fill="rgb(0%, 0%, 0%)" fill-opacity="1" stroke-width="0.708661" stroke-linecap="round" stroke-linejoin="round" stroke="rgb(0%, 0%, 0%)" stroke-opacity="1" stroke-miterlimit="10" d="M 506.992188 68.921875 C 506.992188 72.65625 503.96875 75.679688 500.238281 75.679688 C 496.503906 75.679688 493.480469 72.65625 493.480469 68.921875 C 493.480469 65.191406 496.503906 62.167969 500.238281 62.167969 C 503.96875 62.167969 506.992188 65.191406 506.992188 68.921875 "/>
<path fill-rule="nonzero" fill="rgb(0%, 0%, 0%)" fill-opacity="1" stroke-width="0.708661" stroke-linecap="round" stroke-linejoin="round" stroke="rgb(0%, 0%, 0%)" stroke-opacity="1" stroke-miterlimit="10" d="M 564.292969 28.539062 C 564.292969 32.269531 561.265625 35.296875 557.535156 35.296875 C 553.804688 35.296875 550.78125 32.269531 550.78125 28.539062 C 550.78125 24.808594 553.804688 21.785156 557.535156 21.785156 C 561.265625 21.785156 564.292969 24.808594 564.292969 28.539062 "/>
<path fill-rule="nonzero" fill="rgb(0%, 0%, 0%)" fill-opacity="1" stroke-width="0.708661" stroke-linecap="round" stroke-linejoin="round" stroke="rgb(0%, 0%, 0%)" stroke-opacity="1" stroke-miterlimit="10" d="M 503.699219 25.296875 C 503.699219 29.027344 500.675781 32.050781 496.945312 32.050781 C 493.210938 32.050781 490.1875 29.027344 490.1875 25.296875 C 490.1875 21.566406 493.210938 18.539062 496.945312 18.539062 C 500.675781 18.539062 503.699219 21.566406 503.699219 25.296875 "/>
</svg>
